<svg width="96" height="593" viewBox="0 0 96 593" fill="none" xmlns="http://www.w3.org/2000/svg">
<g clip-path="url(#clip0_539_1297)">
<path d="M13.0005 0.337524H95.5005V22.1344C95.5005 26.6969 94.4849 30.3063 92.4536 32.9625C90.4224 35.65 87.5317 37.5719 83.7817 38.7281C80.0317 39.8844 75.563 40.4625 70.3755 40.4625C65.3755 40.4625 61.0161 39.9781 57.2974 39.0094C53.6099 38.0406 50.7505 36.3063 48.7193 33.8063C46.688 31.3375 45.6724 27.8219 45.6724 23.2594V16.5563H13.0005V0.337524ZM60.4849 16.5563V17.4938C60.4849 20.5563 61.3443 22.4313 63.063 23.1188C64.7817 23.8063 67.313 24.15 70.6567 24.15C73.7817 24.15 76.188 23.8063 77.8755 23.1188C79.5943 22.4625 80.4536 20.8844 80.4536 18.3844V16.5563H60.4849ZM12.2505 75.4688C12.2505 61.4688 19.5161 54.4688 34.0474 54.4688H62.2661C68.8911 54.4688 74.1724 56.3281 78.1099 60.0469C82.0786 63.7656 84.063 68.9063 84.063 75.4688C84.063 82.0625 82.0786 87.2188 78.1099 90.9375C74.1724 94.6563 68.8911 96.5156 62.2661 96.5156H34.0474C19.5161 96.5156 12.2505 89.5 12.2505 75.4688ZM25.188 75.4688C25.188 76.875 25.688 77.875 26.688 78.4688C27.7192 79.0938 29.0161 79.4063 30.5786 79.4063H64.938C69.0317 79.4063 71.0786 78.0938 71.0786 75.4688C71.0786 72.8438 69.0317 71.5313 64.938 71.5313H30.5786C29.0161 71.5313 27.7192 71.8281 26.688 72.4219C25.688 73.0469 25.188 74.0625 25.188 75.4688ZM1.28174 112.35H83.313V129.413H75.813C78.4067 130.444 80.4224 131.866 81.8599 133.678C83.3286 135.522 84.063 138.147 84.063 141.553C84.063 146.147 82.3911 149.381 79.0474 151.256C75.7036 153.163 71.3286 154.116 65.9224 154.116H31.3286C27.7349 154.116 24.4849 153.6 21.5786 152.569C18.7036 151.569 16.4224 149.975 14.7349 147.788C13.0786 145.631 12.2505 142.803 12.2505 139.303C12.2505 134.741 15.0005 131.444 20.5005 129.413H1.28174V112.35ZM25.3286 133.397C25.3286 135.147 26.2036 136.194 27.9536 136.538C29.7036 136.913 31.8599 137.1 34.4224 137.1H61.8911C64.4849 137.1 66.6411 136.913 68.3599 136.538C70.1099 136.194 70.9849 135.147 70.9849 133.397C70.9849 131.584 70.0942 130.459 68.313 130.022C66.563 129.616 64.4224 129.413 61.8911 129.413H34.4224C31.8911 129.413 29.7349 129.616 27.9536 130.022C26.2036 130.459 25.3286 131.584 25.3286 133.397ZM12.2505 183.684C12.2505 179.934 13.0317 177.059 14.5942 175.059C16.1567 173.091 18.3286 171.747 21.1099 171.028C23.9224 170.309 27.2036 169.95 30.9536 169.95H83.313V186.825H32.9224C30.1099 186.825 28.1411 187.044 27.0161 187.481C25.9224 187.919 25.3755 188.95 25.3755 190.575C25.3755 192.325 26.1567 193.419 27.7192 193.856C29.2817 194.325 31.2974 194.559 33.7661 194.559H83.313V211.294H13.0005V194.513H20.5005C17.813 193.45 15.7661 192.169 14.3599 190.669C12.9536 189.2 12.2505 186.872 12.2505 183.684ZM13.0005 227.644H95.5005V244.706H13.0005V227.644ZM12.2505 273.853C12.2505 269.947 13.1567 266.963 14.9692 264.9C16.7817 262.869 19.2661 261.478 22.4224 260.728C25.5786 259.978 29.1567 259.603 33.1567 259.603C37.438 259.603 40.938 260.025 43.6567 260.869C46.4067 261.713 48.6567 263.15 50.4067 265.181C52.1567 267.244 53.6411 270.072 54.8599 273.666L58.4224 284.072H65.6411C69.4224 284.072 71.313 282.838 71.313 280.369C71.313 278.119 69.7817 276.994 66.7192 276.994H62.5005V260.681C62.7505 260.65 63.063 260.634 63.438 260.634C63.8442 260.634 64.2974 260.634 64.7974 260.634C71.7974 260.634 76.7505 262.275 79.6567 265.556C82.5942 268.869 84.063 274.103 84.063 281.259C84.063 285.009 83.3911 288.369 82.0474 291.338C80.7349 294.306 78.7817 296.65 76.188 298.369C73.5942 300.119 70.3911 300.994 66.5786 300.994H13.0005V284.306H21.3442C18.4067 283.494 16.1567 282.15 14.5942 280.275C13.0317 278.4 12.2505 276.259 12.2505 273.853ZM25.2817 280.463C25.2817 281.838 25.8599 282.775 27.0161 283.275C28.1724 283.775 29.4224 284.025 30.7661 284.025H50.3599C49.4224 281.713 48.2349 279.916 46.7974 278.634C45.3911 277.353 43.313 276.713 40.563 276.713H31.5161C27.3599 276.713 25.2817 277.963 25.2817 280.463ZM13.0005 317.063H83.313V334.125H75.4849C78.2036 334.938 80.3286 336.375 81.8599 338.438C83.3911 340.5 84.1567 343.094 84.1567 346.219H70.1411C70.1411 344.844 69.9849 343.203 69.6724 341.297C69.3911 339.391 68.9849 337.719 68.4536 336.281C67.9536 334.844 67.3911 334.125 66.7661 334.125H13.0005V317.063ZM13.0005 399.403H79.6567V389.606H95.5005V425.7H79.6567V415.903H13.0005V399.403ZM12.2505 450.628C12.2505 446.722 13.1567 443.738 14.9692 441.675C16.7817 439.644 19.2661 438.253 22.4224 437.503C25.5786 436.753 29.1567 436.378 33.1567 436.378C37.438 436.378 40.938 436.8 43.6567 437.644C46.4067 438.488 48.6567 439.925 50.4067 441.956C52.1567 444.019 53.6411 446.847 54.8599 450.441L58.4224 460.847H65.6411C69.4224 460.847 71.313 459.613 71.313 457.144C71.313 454.894 69.7817 453.769 66.7192 453.769H62.5005V437.456C62.7505 437.425 63.063 437.409 63.438 437.409C63.8442 437.409 64.2974 437.409 64.7974 437.409C71.7974 437.409 76.7505 439.05 79.6567 442.331C82.5942 445.644 84.063 450.878 84.063 458.034C84.063 461.784 83.3911 465.144 82.0474 468.113C80.7349 471.081 78.7817 473.425 76.188 475.144C73.5942 476.894 70.3911 477.769 66.5786 477.769H13.0005V461.081H21.3442C18.4067 460.269 16.1567 458.925 14.5942 457.05C13.0317 455.175 12.2505 453.034 12.2505 450.628ZM25.2817 457.238C25.2817 458.613 25.8599 459.55 27.0161 460.05C28.1724 460.55 29.4224 460.8 30.7661 460.8H50.3599C49.4224 458.488 48.2349 456.691 46.7974 455.409C45.3911 454.128 43.313 453.488 40.563 453.488H31.5161C27.3599 453.488 25.2817 454.738 25.2817 457.238ZM0.812988 512.775C0.812988 509.525 0.984863 506.728 1.32861 504.384C1.64111 502.072 2.21924 499.994 3.06299 498.15C3.90674 496.306 5.09424 494.463 6.62549 492.619L16.3286 498.291C13.8911 502.384 12.6724 506.478 12.6724 510.572C12.6724 513.259 13.5317 515.259 15.2505 516.572C16.9692 517.884 19.2036 518.541 21.9536 518.541H28.8442C24.0317 517.197 21.6255 513.619 21.6255 507.806C21.6255 504.463 22.4224 501.759 24.0161 499.697C25.6099 497.634 27.7661 496.134 30.4849 495.197C33.2036 494.259 36.2349 493.791 39.5786 493.791H64.8442C68.6255 493.791 71.9536 494.197 74.8286 495.009C77.7349 495.822 80.0005 497.244 81.6255 499.275C83.2505 501.306 84.063 504.15 84.063 507.806C84.063 510.9 83.2817 513.306 81.7192 515.025C80.1567 516.775 78.0474 517.947 75.3911 518.541H83.313V535.65H23.0317C15.063 535.65 9.37549 533.806 5.96924 530.119C2.53174 526.463 0.812988 520.681 0.812988 512.775ZM34.2817 514.603C34.2817 517.228 36.6567 518.541 41.4067 518.541H65.313C66.5942 518.541 67.9067 518.166 69.2505 517.416C70.5942 516.697 71.2661 515.697 71.2661 514.416C71.2661 512.791 70.6567 511.775 69.438 511.369C68.2505 510.963 66.8755 510.759 65.313 510.759H41.4067C39.7192 510.759 38.1099 510.963 36.5786 511.369C35.0474 511.806 34.2817 512.884 34.2817 514.603ZM12.2505 571.078C12.2505 557.203 19.2817 550.266 33.3442 550.266H38.9224V567.141H30.6724C29.0786 567.141 27.8286 567.453 26.9224 568.078C26.0161 568.703 25.563 569.703 25.563 571.078C25.563 573.516 27.3911 574.734 31.0474 574.734C34.1099 574.734 36.3911 574.094 37.8911 572.812C39.4224 571.531 40.8911 569.969 42.2974 568.125L49.188 559.172C51.3755 556.359 53.688 554.219 56.1255 552.75C58.563 551.281 61.9536 550.547 66.2974 550.547C70.3286 550.547 73.6567 551.5 76.2817 553.406C78.9067 555.344 80.8599 557.891 82.1411 561.047C83.4224 564.234 84.063 567.672 84.063 571.359C84.063 584.984 77.2661 591.797 63.6724 591.797H62.3599V574.453H65.0317C66.438 574.453 67.7974 574.203 69.1099 573.703C70.4224 573.234 71.0786 572.297 71.0786 570.891C71.0786 568.516 69.8286 567.328 67.3286 567.328C64.7974 567.328 62.813 568.328 61.3755 570.328L53.7817 580.734C51.438 583.984 48.6567 586.703 45.438 588.891C42.2192 591.109 37.938 592.219 32.5942 592.219C25.9692 592.219 20.9224 590.328 17.4536 586.547C13.9849 582.797 12.2505 577.641 12.2505 571.078Z" fill="#F1EBE7"/>
</g>
<defs>
<clipPath id="clip0_539_1297">
<rect width="96" height="593" fill="white" transform="translate(0.000488281)"/>
</clipPath>
</defs>
</svg>
