<svg width="687" height="750" viewBox="0 0 687 750" fill="none" xmlns="http://www.w3.org/2000/svg">
<path d="M23.8286 117.781C17.6112 117.781 12.5982 115.844 8.78955 111.971C5.01351 108.097 3.12549 102.677 3.12549 95.7109V56.0625C3.12549 47.7292 4.76937 41.349 8.05713 36.9219C11.3775 32.4948 16.7648 30.2812 24.2193 30.2812C28.2883 30.2812 31.9015 31.0299 35.0591 32.5273C38.2492 34.0247 40.7557 36.2708 42.5786 39.2656C44.4015 42.2279 45.313 45.9714 45.313 50.4961V65.3398H28.2232V52.6445C28.2232 50.0729 27.8976 48.3477 27.2466 47.4688C26.5956 46.5573 25.5864 46.1016 24.2193 46.1016C22.6242 46.1016 21.55 46.6875 20.9966 47.8594C20.4432 48.9987 20.1665 50.5286 20.1665 52.4492V95.4668C20.1665 97.8431 20.5083 99.5195 21.1919 100.496C21.9081 101.473 22.9172 101.961 24.2193 101.961C25.6841 101.961 26.7095 101.359 27.2954 100.154C27.9139 98.9499 28.2232 97.3874 28.2232 95.4668V79.9883H45.5083V96.248C45.5083 103.8 43.604 109.285 39.7954 112.703C35.9868 116.089 30.6646 117.781 23.8286 117.781ZM74.3071 117.781C70.2381 117.781 67.1294 116.837 64.981 114.949C62.8651 113.061 61.4165 110.473 60.6353 107.186C59.854 103.898 59.4634 100.171 59.4634 96.0039C59.4634 91.5443 59.9028 87.8984 60.7817 85.0664C61.6607 82.2018 63.1581 79.8581 65.2739 78.0352C67.4224 76.2122 70.3683 74.666 74.1118 73.3965L84.9517 69.6855V62.166C84.9517 58.2272 83.6659 56.2578 81.0943 56.2578C78.7505 56.2578 77.5786 57.8529 77.5786 61.043V65.4375H60.5864C60.5539 65.1771 60.5376 64.8516 60.5376 64.4609C60.5376 64.0378 60.5376 63.5658 60.5376 63.0449C60.5376 55.7533 62.2466 50.5938 65.6646 47.5664C69.1151 44.5065 74.5676 42.9766 82.022 42.9766C85.9282 42.9766 89.4276 43.6764 92.52 45.0762C95.6125 46.4434 98.0539 48.4779 99.8443 51.1797C101.667 53.8815 102.578 57.2181 102.578 61.1895V117H85.1958V108.309C84.3495 111.368 82.9497 113.712 80.9966 115.34C79.0435 116.967 76.8137 117.781 74.3071 117.781ZM81.1919 104.207C82.6242 104.207 83.6008 103.605 84.1216 102.4C84.6424 101.196 84.9028 99.8939 84.9028 98.4941V78.084C82.494 79.0605 80.6222 80.2975 79.2876 81.7949C77.953 83.2598 77.2857 85.4245 77.2857 88.2891V97.7129C77.2857 102.042 78.5877 104.207 81.1919 104.207ZM134.355 117.781C129.635 117.781 126.445 116.788 124.785 114.803C123.158 112.785 122.344 109.708 122.344 105.574V59.9199H117.412V46.5898H122.344V31.0625H139.336V46.5898H144.268V59.9199H139.336V101.473C139.336 102.677 139.531 103.523 139.922 104.012C140.312 104.5 141.061 104.744 142.168 104.744C142.949 104.744 143.649 104.679 144.268 104.549V116.463C143.877 116.593 142.656 116.837 140.605 117.195C138.555 117.586 136.471 117.781 134.355 117.781ZM180.391 117.781C175.182 117.781 171.032 116.805 167.939 114.852C164.847 112.898 162.633 110.083 161.299 106.404C159.964 102.726 159.297 98.2988 159.297 93.123V63.6797C159.297 56.8763 161.25 51.7331 165.156 48.25C169.062 44.7344 174.434 42.9766 181.27 42.9766C195.332 42.9766 202.363 49.8776 202.363 63.6797V69.002C202.363 75.4473 202.298 79.7767 202.168 81.9902H176.777V96.1504C176.777 97.4525 176.859 98.7383 177.021 100.008C177.184 101.245 177.542 102.27 178.096 103.084C178.682 103.898 179.609 104.305 180.879 104.305C182.702 104.305 183.841 103.523 184.297 101.961C184.753 100.366 184.98 98.2988 184.98 95.7598V88.7285H202.363V92.8789C202.363 98.3477 201.68 102.938 200.312 106.648C198.978 110.327 196.699 113.11 193.477 114.998C190.286 116.854 185.924 117.781 180.391 117.781ZM176.68 73.2988H184.98V63.4355C184.98 60.7988 184.655 58.9108 184.004 57.7715C183.353 56.5996 182.376 56.0137 181.074 56.0137C179.674 56.0137 178.584 56.5671 177.803 57.6738C177.054 58.7806 176.68 60.7012 176.68 63.4355V73.2988ZM238.438 129.695C235.052 129.695 232.139 129.516 229.697 129.158C227.288 128.833 225.124 128.23 223.203 127.352C221.283 126.473 219.362 125.236 217.441 123.641L223.35 113.533C227.615 116.072 231.878 117.342 236.143 117.342C238.942 117.342 241.025 116.447 242.393 114.656C243.76 112.866 244.443 110.538 244.443 107.674V100.496C243.044 105.509 239.316 108.016 233.262 108.016C229.779 108.016 226.963 107.186 224.814 105.525C222.666 103.865 221.104 101.619 220.127 98.7871C219.15 95.9551 218.662 92.7975 218.662 89.3145V62.9961C218.662 59.0573 219.085 55.5905 219.932 52.5957C220.778 49.5684 222.259 47.2083 224.375 45.5156C226.491 43.8229 229.453 42.9766 233.262 42.9766C236.484 42.9766 238.992 43.7904 240.781 45.418C242.604 47.0456 243.825 49.2428 244.443 52.0098V43.7578H262.266V106.551C262.266 114.852 260.345 120.776 256.504 124.324C252.695 127.905 246.673 129.695 238.438 129.695ZM240.342 94.832C243.076 94.832 244.443 92.3581 244.443 87.4102V62.5078C244.443 61.1732 244.053 59.806 243.271 58.4062C242.523 57.0065 241.481 56.3066 240.146 56.3066C238.454 56.3066 237.396 56.9414 236.973 58.2109C236.549 59.4479 236.338 60.8802 236.338 62.5078V87.4102C236.338 89.168 236.549 90.8444 236.973 92.4395C237.428 94.0345 238.551 94.832 240.342 94.832ZM300.391 117.781C285.807 117.781 278.516 110.213 278.516 95.0762V65.6816C278.516 58.7806 280.452 53.2793 284.326 49.1777C288.2 45.0436 293.555 42.9766 300.391 42.9766C307.259 42.9766 312.63 45.0436 316.504 49.1777C320.378 53.2793 322.314 58.7806 322.314 65.6816V95.0762C322.314 110.213 315.007 117.781 300.391 117.781ZM300.391 104.305C301.855 104.305 302.897 103.784 303.516 102.742C304.167 101.668 304.492 100.317 304.492 98.6895V62.8984C304.492 58.6341 303.125 56.502 300.391 56.502C297.656 56.502 296.289 58.6341 296.289 62.8984V98.6895C296.289 100.317 296.599 101.668 297.217 102.742C297.868 103.784 298.926 104.305 300.391 104.305ZM338.809 117V43.7578H356.582V51.9121C357.428 49.0801 358.926 46.8665 361.074 45.2715C363.223 43.6764 365.924 42.8789 369.18 42.8789V57.4785C367.747 57.4785 366.038 57.6413 364.053 57.9668C362.068 58.2598 360.326 58.6829 358.828 59.2363C357.331 59.7572 356.582 60.3431 356.582 60.9941V117H338.809ZM382.061 129.207V118.123H390.46C391.729 118.123 392.363 117.684 392.363 116.805C392.363 116.349 392.314 115.877 392.217 115.389L380.742 43.7578H397.49L402.373 97.6641L408.135 43.7578H424.98L411.406 120.809C410.918 123.576 409.974 125.659 408.574 127.059C407.207 128.491 404.945 129.207 401.787 129.207H382.061Z" fill="#F4EEEB"/>
<path d="M3.80908 267V181.062H20.8013V215.486L28.8091 181.062H46.0943L36.4751 220.418L48.0962 267H30.2739L20.8989 225.398V267H3.80908ZM81.5825 267.781C74.714 267.781 69.4569 265.714 65.811 261.58C62.1978 257.413 60.3911 251.408 60.3911 243.562V202.742C60.3911 195.385 62.1815 189.803 65.7622 185.994C69.3755 182.186 74.6489 180.281 81.5825 180.281C88.5161 180.281 93.7733 182.186 97.354 185.994C100.967 189.803 102.773 195.385 102.773 202.742V243.562C102.773 251.408 100.951 257.413 97.3052 261.58C93.6919 265.714 88.451 267.781 81.5825 267.781ZM81.729 251.961C84.3332 251.961 85.6353 249.438 85.6353 244.393V202.449C85.6353 198.217 84.3657 196.102 81.8267 196.102C78.9621 196.102 77.5298 198.266 77.5298 202.596V244.49C77.5298 247.16 77.8553 249.08 78.5064 250.252C79.1574 251.391 80.2316 251.961 81.729 251.961ZM119.707 267V181.062H146.074C150.469 181.062 153.789 182.072 156.035 184.09C158.281 186.076 159.779 188.875 160.527 192.488C161.309 196.069 161.699 200.285 161.699 205.135C161.699 209.822 161.097 213.566 159.893 216.365C158.721 219.165 156.491 221.102 153.203 222.176C155.905 222.729 157.793 224.08 158.867 226.229C159.974 228.344 160.527 231.095 160.527 234.48V267H143.584V233.357C143.584 230.851 143.063 229.305 142.021 228.719C141.012 228.1 139.368 227.791 137.09 227.791V267H119.707ZM137.188 212.898H141.338C143.714 212.898 144.902 210.311 144.902 205.135C144.902 201.782 144.642 199.585 144.121 198.543C143.6 197.501 142.624 196.98 141.191 196.98H137.188V212.898ZM177.363 267V181.062H211.738V197.664H194.844V214.412H211.055V230.574H194.844V250.252H212.861V267H177.363ZM226.23 267L234.531 181.062H263.682L271.836 267H255.576L254.355 253.133H244.004L242.93 267H226.23ZM245.225 239.412H253.037L249.277 195.711H248.496L245.225 239.412ZM287.109 267V181.062H304.785L312.695 222.225V181.062H329.297V267H312.5L303.906 224.031V267H287.109Z" fill="#F4EEEB"/>
<path d="M3.80908 417V331.062H27.1001C33.3501 331.062 37.8911 332.592 40.7232 335.652C43.5877 338.68 45.02 343.693 45.02 350.691V354.451C45.02 358.488 44.2876 361.759 42.8228 364.266C41.3905 366.772 39.1932 368.416 36.231 369.197C40.1047 370.174 42.6926 372.469 43.9946 376.082C45.3293 379.663 45.9966 384.041 45.9966 389.217C45.9966 394.783 45.4758 399.65 44.4341 403.816C43.3924 407.983 41.5044 411.222 38.77 413.533C36.0357 415.844 32.1457 417 27.1001 417H3.80908ZM20.606 363.436H24.1216C25.7166 363.436 26.742 362.817 27.1978 361.58C27.6535 360.343 27.8814 358.862 27.8814 357.137V348.494C27.8814 345.727 26.6607 344.344 24.2193 344.344H20.606V363.436ZM22.315 401.863C26.7746 401.863 29.0044 399.747 29.0044 395.516V384.773C29.0044 382.332 28.6301 380.411 27.8814 379.012C27.1652 377.579 25.798 376.863 23.7798 376.863H20.606V401.766C21.3221 401.831 21.8918 401.863 22.315 401.863ZM61.6607 417V331.062H84.9517C91.2017 331.062 95.7427 332.592 98.5747 335.652C101.439 338.68 102.871 343.693 102.871 350.691V354.451C102.871 358.488 102.139 361.759 100.674 364.266C99.242 366.772 97.0448 368.416 94.0825 369.197C97.9562 370.174 100.544 372.469 101.846 376.082C103.18 379.663 103.848 384.041 103.848 389.217C103.848 394.783 103.327 399.65 102.285 403.816C101.243 407.983 99.356 411.222 96.6216 413.533C93.8872 415.844 89.9972 417 84.9517 417H61.6607ZM78.4575 363.436H81.9732C83.5682 363.436 84.5936 362.817 85.0493 361.58C85.5051 360.343 85.7329 358.862 85.7329 357.137V348.494C85.7329 345.727 84.5122 344.344 82.0708 344.344H78.4575V363.436ZM80.1665 401.863C84.6262 401.863 86.856 399.747 86.856 395.516V384.773C86.856 382.332 86.4816 380.411 85.7329 379.012C85.0168 377.579 83.6496 376.863 81.6314 376.863H78.4575V401.766C79.1737 401.831 79.7433 401.863 80.1665 401.863ZM157.5 426.131L143.828 417.146C142.266 417.57 140.654 417.781 138.994 417.781C132.288 417.781 127.161 415.796 123.613 411.824C120.098 407.853 118.34 402.059 118.34 394.441V352.889C118.34 345.499 120.146 339.884 123.76 336.043C127.406 332.202 132.663 330.281 139.531 330.281C146.4 330.281 151.641 332.202 155.254 336.043C158.9 339.884 160.723 345.499 160.723 352.889V394.441C160.723 401.538 159.128 407.12 155.938 411.189L163.311 415.877L157.5 426.131ZM139.531 401.961C140.768 401.961 141.647 401.505 142.168 400.594C142.721 399.682 143.063 398.559 143.193 397.225C143.356 395.89 143.438 394.604 143.438 393.367V353.182C143.438 351.359 143.177 349.731 142.656 348.299C142.168 346.834 141.094 346.102 139.434 346.102C137.742 346.102 136.634 346.818 136.113 348.25C135.592 349.65 135.332 351.277 135.332 353.133V393.709C135.332 394.848 135.397 396.069 135.527 397.371C135.69 398.641 136.064 399.731 136.65 400.643C137.236 401.521 138.197 401.961 139.531 401.961Z" fill="#F4EEEB"/>
<path d="M22.8521 567.781C18.9784 567.781 15.4465 567.033 12.2564 565.535C9.06625 564.038 6.52718 561.824 4.63916 558.895C2.78369 555.932 1.85596 552.303 1.85596 548.006V526.473H18.8482V546.98C18.8482 548.478 19.1411 549.682 19.7271 550.594C20.3456 551.505 21.3221 551.961 22.6567 551.961C25.2284 551.961 26.5142 550.382 26.5142 547.225V481.062H43.8482V545.516C43.8482 550.073 42.953 554.028 41.1626 557.381C39.3722 560.701 36.8983 563.273 33.7407 565.096C30.5832 566.886 26.9536 567.781 22.8521 567.781ZM58.145 567L66.4458 481.062H95.5962L103.75 567H87.4907L86.27 553.133H75.9185L74.8443 567H58.145ZM77.1392 539.412H84.9517L81.1919 495.711H80.4107L77.1392 539.412ZM119.023 567V481.062H141.729C146.481 481.062 150.241 482.12 153.008 484.236C155.807 486.352 157.809 489.363 159.014 493.27C160.218 497.176 160.82 501.831 160.82 507.234C160.82 512.443 160.316 516.984 159.307 520.857C158.298 524.699 156.491 527.677 153.887 529.793C151.315 531.909 147.653 532.967 142.9 532.967H135.918V567H119.023ZM135.918 517.537H136.895C140.085 517.537 142.038 516.642 142.754 514.852C143.47 513.061 143.828 510.424 143.828 506.941C143.828 503.686 143.47 501.18 142.754 499.422C142.07 497.632 140.426 496.736 137.822 496.736H135.918V517.537ZM172.48 567L180.781 481.062H209.932L218.086 567H201.826L200.605 553.133H190.254L189.18 567H172.48ZM191.475 539.412H199.287L195.527 495.711H194.746L191.475 539.412ZM233.359 567V481.062H251.035L258.945 522.225V481.062H275.547V567H258.75L250.156 524.031V567H233.359ZM293.164 567V481.062H327.539V497.664H310.645V514.412H326.855V530.574H310.645V550.252H328.662V567H293.164ZM364.785 567.781C356.94 567.781 351.276 565.828 347.793 561.922C344.342 558.016 342.617 551.798 342.617 543.27V534.871H359.609V545.613C359.609 547.599 359.902 549.161 360.488 550.301C361.107 551.408 362.165 551.961 363.662 551.961C365.225 551.961 366.299 551.505 366.885 550.594C367.504 549.682 367.812 548.185 367.812 546.102C367.812 543.465 367.552 541.268 367.031 539.51C366.51 537.719 365.599 536.027 364.297 534.432C363.027 532.804 361.254 530.916 358.975 528.768L351.26 521.443C345.499 516.007 342.617 509.79 342.617 502.791C342.617 495.467 344.31 489.884 347.695 486.043C351.113 482.202 356.045 480.281 362.49 480.281C370.368 480.281 375.952 482.381 379.238 486.58C382.56 490.779 384.219 497.16 384.219 505.721H366.738V499.812C366.738 498.641 366.397 497.729 365.714 497.078C365.062 496.427 364.168 496.102 363.027 496.102C361.66 496.102 360.651 496.492 360 497.273C359.382 498.022 359.072 498.999 359.072 500.203C359.072 501.408 359.398 502.71 360.049 504.109C360.701 505.509 361.986 507.12 363.906 508.943L373.818 518.465C375.804 520.353 377.627 522.355 379.287 524.471C380.947 526.554 382.282 528.995 383.291 531.795C384.3 534.562 384.805 537.947 384.805 541.951C384.805 550.024 383.307 556.355 380.312 560.945C377.35 565.503 372.174 567.781 364.785 567.781ZM400.566 567V481.062H434.941V497.664H418.047V514.412H434.258V530.574H418.047V550.252H436.064V567H400.566Z" fill="#F4EEEB"/>
<path d="M1.46533 717L9.76611 631.062H38.9165L47.0708 717H30.811L29.5903 703.133H19.2388L18.1646 717H1.46533ZM20.4595 689.412H28.272L24.5122 645.711H23.731L20.4595 689.412ZM62.3443 717V631.062H96.7193V647.811H79.6294V661.482H95.8403V678.035H79.6294V717H62.3443ZM119.658 717V647.566H109.453V631.062H147.051V647.566H136.846V717H119.658ZM161.836 717V631.062H196.211V647.664H179.316V664.412H195.527V680.574H179.316V700.252H197.334V717H161.836ZM213.047 717V631.062H239.414C243.809 631.062 247.129 632.072 249.375 634.09C251.621 636.076 253.118 638.875 253.867 642.488C254.648 646.069 255.039 650.285 255.039 655.135C255.039 659.822 254.437 663.566 253.232 666.365C252.061 669.165 249.831 671.102 246.543 672.176C249.245 672.729 251.133 674.08 252.207 676.229C253.314 678.344 253.867 681.095 253.867 684.48V717H236.924V683.357C236.924 680.851 236.403 679.305 235.361 678.719C234.352 678.1 232.708 677.791 230.43 677.791V717H213.047ZM230.527 662.898H234.678C237.054 662.898 238.242 660.311 238.242 655.135C238.242 651.782 237.982 649.585 237.461 648.543C236.94 647.501 235.964 646.98 234.531 646.98H230.527V662.898ZM270.703 717V631.062H288.379L296.289 672.225V631.062H312.891V717H296.094L287.5 674.031V717H270.703ZM351.016 717.781C344.147 717.781 338.89 715.714 335.244 711.58C331.631 707.413 329.824 701.408 329.824 693.562V652.742C329.824 645.385 331.616 639.803 335.195 635.994C338.81 632.186 344.082 630.281 351.016 630.281C357.949 630.281 363.206 632.186 366.787 635.994C370.4 639.803 372.207 645.385 372.207 652.742V693.562C372.207 701.408 370.384 707.413 366.738 711.58C363.125 715.714 357.884 717.781 351.016 717.781ZM351.162 701.961C353.766 701.961 355.068 699.438 355.068 694.393V652.449C355.068 648.217 353.799 646.102 351.26 646.102C348.396 646.102 346.964 648.266 346.964 652.596V694.49C346.964 697.16 347.288 699.08 347.939 700.252C348.59 701.391 349.665 701.961 351.162 701.961ZM409.648 717.781C402.78 717.781 397.523 715.714 393.878 711.58C390.264 707.413 388.457 701.408 388.457 693.562V652.742C388.457 645.385 390.247 639.803 393.828 635.994C397.441 632.186 402.715 630.281 409.648 630.281C416.582 630.281 421.84 632.186 425.421 635.994C429.034 639.803 430.84 645.385 430.84 652.742V693.562C430.84 701.408 429.017 707.413 425.371 711.58C421.758 715.714 416.517 717.781 409.648 717.781ZM409.796 701.961C412.4 701.961 413.701 699.438 413.701 694.393V652.449C413.701 648.217 412.432 646.102 409.893 646.102C407.029 646.102 405.596 648.266 405.596 652.596V694.49C405.596 697.16 405.921 699.08 406.572 700.252C407.223 701.391 408.298 701.961 409.796 701.961ZM447.773 717V631.062H465.449L473.359 672.225V631.062H489.961V717H473.164L464.57 674.031V717H447.773ZM548.389 717V647.566H538.185V631.062H575.781V647.566H565.576V717H548.389ZM590.566 717V631.062H624.941V647.664H608.047V664.412H624.258V680.574H608.047V700.252H626.065V717H590.566ZM639.435 717L647.734 631.062H676.885L685.039 717H668.779L667.56 703.133H657.207L656.133 717H639.435ZM658.428 689.412H666.24L662.48 645.711H661.699L658.428 689.412Z" fill="#F4EEEB"/>
</svg>
