<svg width="698" height="383" viewBox="0 0 698 383" fill="none" xmlns="http://www.w3.org/2000/svg">
<path d="M379.518 117V88.7285L365.797 31.0625H382.838L387.623 60.1641L392.408 31.0625H409.4L395.729 88.7285V117H379.518ZM437.564 117.781C433.658 117.781 430.663 116.967 428.58 115.34C426.529 113.712 425.13 111.45 424.381 108.553C423.632 105.623 423.258 102.205 423.258 98.2988V43.7578H440.836V96.248C440.836 99.1777 441.064 101.229 441.52 102.4C441.975 103.54 443.049 104.109 444.742 104.109C446.565 104.109 447.704 103.296 448.16 101.668C448.648 100.04 448.893 97.9408 448.893 95.3691V43.7578H466.324V117H448.844V109.188C447.737 111.987 446.402 114.119 444.84 115.584C443.31 117.049 440.885 117.781 437.564 117.781ZM483.355 117V43.7578H500.445V52.2539C501.227 49.2591 502.561 46.9642 504.449 45.3691C506.337 43.7741 509.104 42.9766 512.75 42.9766C515.68 42.9766 518.17 43.6602 520.221 45.0273C522.304 46.362 523.769 48.1361 524.615 50.3496C525.95 47.9408 527.512 46.1178 529.303 44.8809C531.126 43.6113 533.714 42.9766 537.066 42.9766C541.135 42.9766 544.26 43.8555 546.441 45.6133C548.655 47.3385 550.185 49.7474 551.031 52.8398C551.91 55.8997 552.35 59.4479 552.35 63.4844V117H534.918V63.1914C534.918 58.4714 533.714 56.1113 531.305 56.1113C530.035 56.1113 529.059 56.5508 528.375 57.4297C527.691 58.276 527.219 59.334 526.959 60.6035C526.699 61.873 526.568 63.1426 526.568 64.4121V117H509.137V63.1914C509.137 61.6615 508.941 60.1315 508.551 58.6016C508.193 57.0716 507.249 56.3066 505.719 56.3066C504.417 56.3066 503.408 56.7786 502.691 57.7227C501.975 58.6667 501.487 59.8385 501.227 61.2383C500.966 62.6055 500.836 63.9564 500.836 65.291V117H483.355ZM569.234 117V43.7578H586.324V52.2539C587.105 49.2591 588.44 46.9642 590.328 45.3691C592.216 43.7741 594.983 42.9766 598.629 42.9766C601.559 42.9766 604.049 43.6602 606.1 45.0273C608.183 46.362 609.648 48.1361 610.494 50.3496C611.829 47.9408 613.391 46.1178 615.182 44.8809C617.005 43.6113 619.592 42.9766 622.945 42.9766C627.014 42.9766 630.139 43.8555 632.32 45.6133C634.534 47.3385 636.064 49.7474 636.91 52.8398C637.789 55.8997 638.229 59.4479 638.229 63.4844V117H620.797V63.1914C620.797 58.4714 619.592 56.1113 617.184 56.1113C615.914 56.1113 614.938 56.5508 614.254 57.4297C613.57 58.276 613.098 59.334 612.838 60.6035C612.577 61.873 612.447 63.1426 612.447 64.4121V117H595.016V63.1914C595.016 61.6615 594.82 60.1315 594.43 58.6016C594.072 57.0716 593.128 56.3066 591.598 56.3066C590.296 56.3066 589.286 56.7786 588.57 57.7227C587.854 58.6667 587.366 59.8385 587.105 61.2383C586.845 62.6055 586.715 63.9564 586.715 65.291V117H569.234ZM653.697 129.207V118.123H662.096C663.365 118.123 664 117.684 664 116.805C664 116.349 663.951 115.877 663.854 115.389L652.379 43.7578H669.127L674.01 97.6641L679.771 43.7578H696.617L683.043 120.809C682.555 123.576 681.611 125.659 680.211 127.059C678.844 128.491 676.581 129.207 673.424 129.207H653.697Z" fill="#F4EEEB"/>
<path d="M4.18994 350V264.062H30.5571C34.9517 264.062 38.272 265.072 40.5181 267.09C42.7642 269.076 44.2616 271.875 45.0103 275.488C45.7915 279.069 46.1821 283.285 46.1821 288.135C46.1821 292.822 45.5799 296.566 44.3755 299.365C43.2036 302.165 40.9738 304.102 37.686 305.176C40.3879 305.729 42.2759 307.08 43.3501 309.229C44.4569 311.344 45.0103 314.095 45.0103 317.48V350H28.0669V316.357C28.0669 313.851 27.5461 312.305 26.5044 311.719C25.4953 311.1 23.8514 310.791 21.5728 310.791V350H4.18994ZM21.6704 295.898H25.8208C28.1971 295.898 29.3853 293.311 29.3853 288.135C29.3853 284.782 29.1248 282.585 28.604 281.543C28.0832 280.501 27.1066 279.98 25.6743 279.98H21.6704V295.898ZM82.061 350.781C76.8527 350.781 72.7023 349.805 69.6099 347.852C66.5174 345.898 64.3039 343.083 62.9693 339.404C61.6346 335.726 60.9673 331.299 60.9673 326.123V296.68C60.9673 289.876 62.9204 284.733 66.8267 281.25C70.7329 277.734 76.104 275.977 82.94 275.977C97.0025 275.977 104.033 282.878 104.033 296.68V302.002C104.033 308.447 103.968 312.777 103.838 314.99H78.4478V329.15C78.4478 330.452 78.5291 331.738 78.6919 333.008C78.8547 334.245 79.2127 335.27 79.7661 336.084C80.3521 336.898 81.2798 337.305 82.5493 337.305C84.3722 337.305 85.5116 336.523 85.9673 334.961C86.423 333.366 86.6509 331.299 86.6509 328.76V321.729H104.033V325.879C104.033 331.348 103.35 335.938 101.982 339.648C100.648 343.327 98.3696 346.11 95.147 347.998C91.9569 349.854 87.5949 350.781 82.061 350.781ZM78.3501 306.299H86.6509V296.436C86.6509 293.799 86.3254 291.911 85.6743 290.771C85.0233 289.6 84.0467 289.014 82.7446 289.014C81.3449 289.014 80.2544 289.567 79.4732 290.674C78.7245 291.781 78.3501 293.701 78.3501 296.436V306.299ZM142.402 350.781C134.199 350.781 128.372 348.682 124.922 344.482C121.504 340.283 119.795 334.115 119.795 325.977V303.418C119.795 297.298 120.446 292.204 121.748 288.135C123.05 284.066 125.329 281.022 128.584 279.004C131.839 276.986 136.364 275.977 142.158 275.977C146.195 275.977 149.808 276.693 152.998 278.125C156.221 279.557 158.76 281.657 160.615 284.424C162.471 287.191 163.398 290.576 163.398 294.58V305.762H145.576V295.508C145.576 293.815 145.332 292.399 144.844 291.26C144.355 290.088 143.298 289.502 141.67 289.502C138.805 289.502 137.373 291.536 137.373 295.605V331.104C137.373 332.601 137.699 333.984 138.35 335.254C139.001 336.491 140.076 337.109 141.572 337.109C143.102 337.109 144.16 336.507 144.746 335.303C145.365 334.066 145.674 332.633 145.674 331.006V318.701H163.398V331.494C163.398 335.531 162.487 338.997 160.664 341.895C158.874 344.759 156.4 346.956 153.242 348.486C150.085 350.016 146.471 350.781 142.402 350.781ZM200.791 350.781C186.208 350.781 178.916 343.213 178.916 328.076V298.682C178.916 291.781 180.854 286.279 184.727 282.178C188.6 278.044 193.955 275.977 200.791 275.977C207.66 275.977 213.031 278.044 216.904 282.178C220.778 286.279 222.715 291.781 222.715 298.682V328.076C222.715 343.213 215.407 350.781 200.791 350.781ZM200.791 337.305C202.256 337.305 203.298 336.784 203.916 335.742C204.567 334.668 204.893 333.317 204.893 331.689V295.898C204.893 291.634 203.525 289.502 200.791 289.502C198.057 289.502 196.689 291.634 196.689 295.898V331.689C196.689 333.317 196.999 334.668 197.617 335.742C198.268 336.784 199.326 337.305 200.791 337.305ZM239.209 350V276.758H256.299V285.254C257.081 282.259 258.415 279.964 260.303 278.369C262.191 276.774 264.958 275.977 268.604 275.977C271.533 275.977 274.023 276.66 276.074 278.027C278.159 279.362 279.622 281.136 280.469 283.35C281.803 280.941 283.366 279.118 285.156 277.881C286.979 276.611 289.568 275.977 292.921 275.977C296.99 275.977 300.115 276.855 302.296 278.613C304.509 280.339 306.039 282.747 306.885 285.84C307.764 288.9 308.203 292.448 308.203 296.484V350H290.771V296.191C290.771 291.471 289.567 289.111 287.158 289.111C285.889 289.111 284.913 289.551 284.229 290.43C283.546 291.276 283.073 292.334 282.812 293.604C282.552 294.873 282.422 296.143 282.422 297.412V350H264.99V296.191C264.99 294.661 264.795 293.132 264.404 291.602C264.046 290.072 263.102 289.307 261.572 289.307C260.27 289.307 259.262 289.779 258.546 290.723C257.829 291.667 257.34 292.839 257.08 294.238C256.82 295.605 256.689 296.956 256.689 298.291V350H239.209ZM325.089 350V276.758H342.178V285.254C342.96 282.259 344.294 279.964 346.182 278.369C348.07 276.774 350.837 275.977 354.482 275.977C357.412 275.977 359.902 276.66 361.953 278.027C364.036 279.362 365.501 281.136 366.348 283.35C367.682 280.941 369.245 279.118 371.035 277.881C372.858 276.611 375.447 275.977 378.799 275.977C382.868 275.977 385.993 276.855 388.174 278.613C390.388 280.339 391.918 282.747 392.764 285.84C393.643 288.9 394.082 292.448 394.082 296.484V350H376.65V296.191C376.65 291.471 375.446 289.111 373.037 289.111C371.768 289.111 370.791 289.551 370.107 290.43C369.424 291.276 368.952 292.334 368.691 293.604C368.431 294.873 368.301 296.143 368.301 297.412V350H350.869V296.191C350.869 294.661 350.674 293.132 350.283 291.602C349.925 290.072 348.981 289.307 347.451 289.307C346.149 289.307 345.141 289.779 344.424 290.723C343.708 291.667 343.22 292.839 342.96 294.238C342.699 295.605 342.568 296.956 342.568 298.291V350H325.089ZM431.475 350.781C426.266 350.781 422.116 349.805 419.023 347.852C415.931 345.898 413.717 343.083 412.383 339.404C411.048 335.726 410.382 331.299 410.382 326.123V296.68C410.382 289.876 412.334 284.733 416.24 281.25C420.146 277.734 425.518 275.977 432.354 275.977C446.417 275.977 453.447 282.878 453.447 296.68V302.002C453.447 308.447 453.383 312.777 453.253 314.99H427.861V329.15C427.861 330.452 427.944 331.738 428.105 333.008C428.268 334.245 428.626 335.27 429.18 336.084C429.766 336.898 430.694 337.305 431.964 337.305C433.786 337.305 434.926 336.523 435.382 334.961C435.837 333.366 436.064 331.299 436.064 328.76V321.729H453.447V325.879C453.447 331.348 452.764 335.938 451.396 339.648C450.062 343.327 447.783 346.11 444.561 347.998C441.37 349.854 437.008 350.781 431.475 350.781ZM427.764 306.299H436.064V296.436C436.064 293.799 435.74 291.911 435.089 290.771C434.438 289.6 433.46 289.014 432.158 289.014C430.758 289.014 429.668 289.567 428.887 290.674C428.138 291.781 427.764 293.701 427.764 296.436V306.299ZM469.796 350V276.758H487.275V286.084C487.926 283.285 489.132 280.908 490.889 278.955C492.68 276.969 495.154 275.977 498.311 275.977C503.389 275.977 507.068 277.539 509.346 280.664C511.658 283.789 512.812 288.07 512.812 293.506V350H495.576V295.312C495.576 293.88 495.283 292.562 494.697 291.357C494.111 290.12 493.103 289.502 491.671 289.502C490.336 289.502 489.342 289.974 488.691 290.918C488.073 291.829 487.682 292.985 487.52 294.385C487.357 295.752 487.275 297.119 487.275 298.486V350H469.796ZM544.102 350.781C540.716 350.781 538.031 350.163 536.045 348.926C534.059 347.689 532.578 345.98 531.602 343.799C530.625 341.618 529.974 339.062 529.648 336.133C529.355 333.203 529.209 330.062 529.209 326.709V294.873C529.209 289.242 530.202 284.684 532.188 281.201C534.206 277.718 537.607 275.977 542.393 275.977C545.941 275.977 548.659 276.742 550.547 278.271C552.467 279.769 553.949 281.868 554.99 284.57V264.062H572.764V350H554.99V342.236C554.014 344.873 552.712 346.956 551.084 348.486C549.49 350.016 547.161 350.781 544.102 350.781ZM550.792 337.109C552.451 337.109 553.559 336.442 554.112 335.107C554.698 333.773 554.99 331.38 554.99 327.93V297.119C554.99 295.394 554.73 293.701 554.209 292.041C553.721 290.348 552.614 289.502 550.889 289.502C549.001 289.502 547.812 290.299 547.324 291.895C546.836 293.49 546.592 295.231 546.592 297.119V327.93C546.592 334.049 547.992 337.109 550.792 337.109ZM610.01 350.781C604.802 350.781 600.651 349.805 597.56 347.852C594.466 345.898 592.254 343.083 590.919 339.404C589.583 335.726 588.917 331.299 588.917 326.123V296.68C588.917 289.876 590.87 284.733 594.776 281.25C598.682 277.734 604.053 275.977 610.889 275.977C624.951 275.977 631.982 282.878 631.982 296.68V302.002C631.982 308.447 631.917 312.777 631.787 314.99H606.396V329.15C606.396 330.452 606.478 331.738 606.641 333.008C606.803 334.245 607.161 335.27 607.716 336.084C608.302 336.898 609.229 337.305 610.498 337.305C612.321 337.305 613.461 336.523 613.917 334.961C614.372 333.366 614.6 331.299 614.6 328.76V321.729H631.982V325.879C631.982 331.348 631.299 335.938 629.932 339.648C628.597 343.327 626.318 346.11 623.096 347.998C619.906 349.854 615.544 350.781 610.01 350.781ZM606.299 306.299H614.6V296.436C614.6 293.799 614.274 291.911 613.623 290.771C612.972 289.6 611.995 289.014 610.693 289.014C609.294 289.014 608.203 289.567 607.422 290.674C606.673 291.781 606.299 293.701 606.299 296.436V306.299ZM662.734 350.781C659.349 350.781 656.663 350.163 654.678 348.926C652.692 347.689 651.211 345.98 650.234 343.799C649.258 341.618 648.607 339.062 648.281 336.133C647.988 333.203 647.842 330.062 647.842 326.709V294.873C647.842 289.242 648.836 284.684 650.82 281.201C652.839 277.718 656.241 275.977 661.026 275.977C664.575 275.977 667.292 276.742 669.18 278.271C671.1 279.769 672.581 281.868 673.623 284.57V264.062H691.396V350H673.623V342.236C672.646 344.873 671.344 346.956 669.717 348.486C668.122 350.016 665.794 350.781 662.734 350.781ZM669.424 337.109C671.084 337.109 672.192 336.442 672.745 335.107C673.331 333.773 673.623 331.38 673.623 327.93V297.119C673.623 295.394 673.363 293.701 672.842 292.041C672.354 290.348 671.247 289.502 669.521 289.502C667.633 289.502 666.445 290.299 665.957 291.895C665.469 293.49 665.225 295.231 665.225 297.119V327.93C665.225 334.049 666.625 337.109 669.424 337.109Z" fill="#F5F5F5"/>
<path d="M196.922 233V147.062H220.555C226.74 147.062 231.395 148.788 234.52 152.238C237.645 155.656 239.207 160.669 239.207 167.277V207.512C239.207 215.65 237.775 221.932 234.91 226.359C232.078 230.786 227.098 233 219.969 233H196.922ZM214.207 217.814H217.186C220.343 217.814 221.922 216.285 221.922 213.225V168.889C221.922 166.024 221.531 164.185 220.75 163.371C220.001 162.525 218.455 162.102 216.111 162.102H214.207V217.814ZM276.453 233.781C271.245 233.781 267.094 232.805 264.002 230.852C260.91 228.898 258.696 226.083 257.361 222.404C256.027 218.726 255.359 214.299 255.359 209.123V179.68C255.359 172.876 257.312 167.733 261.219 164.25C265.125 160.734 270.496 158.977 277.332 158.977C291.395 158.977 298.426 165.878 298.426 179.68V185.002C298.426 191.447 298.361 195.777 298.23 197.99H272.84V212.15C272.84 213.452 272.921 214.738 273.084 216.008C273.247 217.245 273.605 218.27 274.158 219.084C274.744 219.898 275.672 220.305 276.941 220.305C278.764 220.305 279.904 219.523 280.359 217.961C280.815 216.366 281.043 214.299 281.043 211.76V204.729H298.426V208.879C298.426 214.348 297.742 218.938 296.375 222.648C295.04 226.327 292.762 229.11 289.539 230.998C286.349 232.854 281.987 233.781 276.453 233.781ZM272.742 189.299H281.043V179.436C281.043 176.799 280.717 174.911 280.066 173.771C279.415 172.6 278.439 172.014 277.137 172.014C275.737 172.014 274.646 172.567 273.865 173.674C273.117 174.781 272.742 176.701 272.742 179.436V189.299ZM314.773 233V147.062H332.547V233H314.773ZM349.48 155.266V140.715H366.961V155.266H349.48ZM349.48 233V159.758H366.961V233H349.48ZM405.916 233.781C397.713 233.781 391.886 231.682 388.436 227.482C385.018 223.283 383.309 217.115 383.309 208.977V186.418C383.309 180.298 383.96 175.204 385.262 171.135C386.564 167.066 388.842 164.022 392.098 162.004C395.353 159.986 399.878 158.977 405.672 158.977C409.708 158.977 413.322 159.693 416.512 161.125C419.734 162.557 422.273 164.657 424.129 167.424C425.984 170.191 426.912 173.576 426.912 177.58V188.762H409.09V178.508C409.09 176.815 408.846 175.399 408.357 174.26C407.869 173.088 406.811 172.502 405.184 172.502C402.319 172.502 400.887 174.536 400.887 178.605V214.104C400.887 215.601 401.212 216.984 401.863 218.254C402.514 219.491 403.589 220.109 405.086 220.109C406.616 220.109 407.674 219.507 408.26 218.303C408.878 217.066 409.188 215.633 409.188 214.006V201.701H426.912V214.494C426.912 218.531 426.001 221.997 424.178 224.895C422.387 227.759 419.913 229.956 416.756 231.486C413.598 233.016 409.985 233.781 405.916 233.781ZM442.918 155.266V140.715H460.398V155.266H442.918ZM442.918 233V159.758H460.398V233H442.918ZM498.621 233.781C484.038 233.781 476.746 226.213 476.746 211.076V181.682C476.746 174.781 478.683 169.279 482.557 165.178C486.43 161.044 491.785 158.977 498.621 158.977C505.49 158.977 510.861 161.044 514.734 165.178C518.608 169.279 520.545 174.781 520.545 181.682V211.076C520.545 226.213 513.237 233.781 498.621 233.781ZM498.621 220.305C500.086 220.305 501.128 219.784 501.746 218.742C502.397 217.668 502.723 216.317 502.723 214.689V178.898C502.723 174.634 501.355 172.502 498.621 172.502C495.887 172.502 494.52 174.634 494.52 178.898V214.689C494.52 216.317 494.829 217.668 495.447 218.742C496.098 219.784 497.156 220.305 498.621 220.305ZM551.15 233.781C547.244 233.781 544.249 232.967 542.166 231.34C540.115 229.712 538.715 227.45 537.967 224.553C537.218 221.623 536.844 218.205 536.844 214.299V159.758H554.422V212.248C554.422 215.178 554.65 217.229 555.105 218.4C555.561 219.54 556.635 220.109 558.328 220.109C560.151 220.109 561.29 219.296 561.746 217.668C562.234 216.04 562.479 213.941 562.479 211.369V159.758H579.91V233H562.43V225.188C561.323 227.987 559.988 230.119 558.426 231.584C556.896 233.049 554.471 233.781 551.15 233.781ZM617.01 233.781C602.557 233.781 595.33 226.457 595.33 211.809V205.998H612.908V214.592C612.908 216.252 613.234 217.554 613.885 218.498C614.536 219.442 615.577 219.914 617.01 219.914C619.549 219.914 620.818 218.01 620.818 214.201C620.818 211.011 620.151 208.635 618.816 207.072C617.482 205.477 615.854 203.947 613.934 202.482L604.607 195.305C601.678 193.026 599.448 190.617 597.918 188.078C596.388 185.539 595.623 182.007 595.623 177.482C595.623 173.283 596.616 169.816 598.602 167.082C600.62 164.348 603.273 162.313 606.561 160.979C609.881 159.644 613.462 158.977 617.303 158.977C631.495 158.977 638.592 166.057 638.592 180.217V181.584H620.525V178.801C620.525 177.336 620.265 175.92 619.744 174.553C619.256 173.186 618.279 172.502 616.814 172.502C614.34 172.502 613.104 173.804 613.104 176.408C613.104 179.045 614.145 181.112 616.229 182.609L627.068 190.52C630.454 192.961 633.286 195.858 635.564 199.211C637.876 202.564 639.031 207.023 639.031 212.59C639.031 219.491 637.062 224.748 633.123 228.361C629.217 231.975 623.846 233.781 617.01 233.781Z" fill="url(#paint0_linear_539_1299)"/>
<defs>
<linearGradient id="paint0_linear_539_1299" x1="417" y1="116" x2="417" y2="266" gradientUnits="userSpaceOnUse">
<stop stop-color="#F4EEEB"/>
<stop offset="1" stop-color="#F5F5F5"/>
</linearGradient>
</defs>
</svg>
