<svg width="580" height="418" viewBox="0 0 580 418" fill="none" xmlns="http://www.w3.org/2000/svg">
<path d="M22.9473 113.75C16.9785 113.75 12.166 111.891 8.50977 108.172C4.88477 104.453 3.07227 99.25 3.07227 92.5625V54.5C3.07227 46.5 4.65039 40.375 7.80664 36.125C10.9941 31.875 16.166 29.75 23.3223 29.75C27.2285 29.75 30.6973 30.4687 33.7285 31.9062C36.791 33.3438 39.1973 35.5 40.9473 38.375C42.6973 41.2188 43.5723 44.8125 43.5723 49.1562V63.4062H27.166V51.2188C27.166 48.75 26.8535 47.0938 26.2285 46.25C25.6035 45.375 24.6348 44.9375 23.3223 44.9375C21.791 44.9375 20.7598 45.5 20.2285 46.625C19.6973 47.7188 19.4316 49.1875 19.4316 51.0312V92.3281C19.4316 94.6094 19.7598 96.2188 20.416 97.1562C21.1035 98.0938 22.0723 98.5625 23.3223 98.5625C24.7285 98.5625 25.7129 97.9844 26.2754 96.8281C26.8691 95.6719 27.166 94.1719 27.166 92.3281V77.4688H43.7598V93.0781C43.7598 100.328 41.9316 105.594 38.2754 108.875C34.6191 112.125 29.5098 113.75 22.9473 113.75ZM79.0473 113.75C65.0473 113.75 58.0473 106.484 58.0473 91.9531V63.7344C58.0473 57.1094 59.9066 51.8281 63.6254 47.8906C67.3441 43.9219 72.4848 41.9375 79.0473 41.9375C85.641 41.9375 90.7973 43.9219 94.516 47.8906C98.2348 51.8281 100.094 57.1094 100.094 63.7344V91.9531C100.094 106.484 93.0785 113.75 79.0473 113.75ZM79.0473 100.812C80.4535 100.812 81.4535 100.312 82.0473 99.3125C82.6723 98.2812 82.9848 96.9844 82.9848 95.4219V61.0625C82.9848 56.9688 81.6723 54.9219 79.0473 54.9219C76.4223 54.9219 75.1098 56.9688 75.1098 61.0625V95.4219C75.1098 96.9844 75.4066 98.2812 76.0004 99.3125C76.6254 100.312 77.641 100.812 79.0473 100.812ZM115.928 113V42.6875H132.334V50.8438C133.084 47.9688 134.366 45.7656 136.178 44.2344C137.991 42.7031 140.647 41.9375 144.147 41.9375C146.959 41.9375 149.35 42.5938 151.319 43.9062C153.319 45.1875 154.725 46.8906 155.537 49.0156C156.819 46.7031 158.319 44.9531 160.037 43.7656C161.787 42.5469 164.272 41.9375 167.491 41.9375C171.397 41.9375 174.397 42.7812 176.491 44.4688C178.616 46.125 180.084 48.4375 180.897 51.4062C181.741 54.3438 182.162 57.75 182.162 61.625V113H165.428V61.3438C165.428 56.8125 164.272 54.5469 161.959 54.5469C160.741 54.5469 159.803 54.9688 159.147 55.8125C158.491 56.625 158.037 57.6406 157.787 58.8594C157.537 60.0781 157.412 61.2969 157.412 62.5156V113H140.678V61.3438C140.678 59.875 140.491 58.4062 140.116 56.9375C139.772 55.4688 138.866 54.7344 137.397 54.7344C136.147 54.7344 135.178 55.1875 134.491 56.0938C133.803 57 133.334 58.125 133.084 59.4688C132.834 60.7812 132.709 62.0781 132.709 63.3594V113H115.928ZM198.372 113V42.6875H214.778V50.8438C215.528 47.9688 216.809 45.7656 218.622 44.2344C220.434 42.7031 223.091 41.9375 226.591 41.9375C229.403 41.9375 231.794 42.5938 233.762 43.9062C235.762 45.1875 237.169 46.8906 237.981 49.0156C239.262 46.7031 240.762 44.9531 242.481 43.7656C244.231 42.5469 246.716 41.9375 249.934 41.9375C253.841 41.9375 256.841 42.7812 258.934 44.4688C261.059 46.125 262.528 48.4375 263.341 51.4062C264.184 54.3438 264.606 57.75 264.606 61.625V113H247.872V61.3438C247.872 56.8125 246.716 54.5469 244.403 54.5469C243.184 54.5469 242.247 54.9688 241.591 55.8125C240.934 56.625 240.481 57.6406 240.231 58.8594C239.981 60.0781 239.856 61.2969 239.856 62.5156V113H223.122V61.3438C223.122 59.875 222.934 58.4062 222.559 56.9375C222.216 55.4688 221.309 54.7344 219.841 54.7344C218.591 54.7344 217.622 55.1875 216.934 56.0938C216.247 57 215.778 58.125 215.528 59.4688C215.278 60.7812 215.153 62.0781 215.153 63.3594V113H198.372ZM300.503 113.75C295.503 113.75 291.519 112.812 288.55 110.938C285.581 109.062 283.456 106.359 282.175 102.828C280.894 99.2969 280.253 95.0469 280.253 90.0781V61.8125C280.253 55.2812 282.128 50.3438 285.878 47C289.628 43.625 294.784 41.9375 301.347 41.9375C314.847 41.9375 321.597 48.5625 321.597 61.8125V66.9219C321.597 73.1094 321.534 77.2656 321.409 79.3906H297.034V92.9844C297.034 94.2344 297.112 95.4688 297.269 96.6875C297.425 97.875 297.769 98.8594 298.3 99.6406C298.862 100.422 299.753 100.812 300.972 100.812C302.722 100.812 303.816 100.062 304.253 98.5625C304.691 97.0312 304.909 95.0469 304.909 92.6094V85.8594H321.597V89.8438C321.597 95.0938 320.941 99.5 319.628 103.062C318.347 106.594 316.159 109.266 313.066 111.078C310.003 112.859 305.816 113.75 300.503 113.75ZM296.941 71.0469H304.909V61.5781C304.909 59.0469 304.597 57.2344 303.972 56.1406C303.347 55.0156 302.409 54.4531 301.159 54.4531C299.816 54.4531 298.769 54.9844 298.019 56.0469C297.3 57.1094 296.941 58.9531 296.941 61.5781V71.0469ZM337.291 113V42.6875H354.072V51.6406C354.697 48.9531 355.853 46.6719 357.541 44.7969C359.259 42.8906 361.634 41.9375 364.666 41.9375C369.541 41.9375 373.072 43.4375 375.259 46.4375C377.478 49.4375 378.587 53.5469 378.587 58.7656V113H362.041V60.5C362.041 59.125 361.759 57.8594 361.197 56.7031C360.634 55.5156 359.666 54.9219 358.291 54.9219C357.009 54.9219 356.056 55.375 355.431 56.2812C354.837 57.1562 354.462 58.2656 354.306 59.6094C354.15 60.9219 354.072 62.2344 354.072 63.5469V113H337.291ZM409.234 113.75C404.703 113.75 401.641 112.797 400.047 110.891C398.484 108.953 397.703 106 397.703 102.031V58.2031H392.969V45.4062H397.703V30.5H414.016V45.4062H418.75V58.2031H414.016V98.0938C414.016 99.25 414.203 100.062 414.578 100.531C414.953 101 415.672 101.234 416.734 101.234C417.484 101.234 418.156 101.172 418.75 101.047V112.484C418.375 112.609 417.203 112.844 415.234 113.188C413.266 113.562 411.266 113.75 409.234 113.75ZM453.006 113.75C439.131 113.75 432.194 106.719 432.194 92.6562V87.0781H449.069V95.3281C449.069 96.9219 449.381 98.1719 450.006 99.0781C450.631 99.9844 451.631 100.438 453.006 100.438C455.444 100.438 456.663 98.6094 456.663 94.9531C456.663 91.8906 456.022 89.6094 454.741 88.1094C453.459 86.5781 451.897 85.1094 450.053 83.7031L441.1 76.8125C438.288 74.625 436.147 72.3125 434.678 69.875C433.209 67.4375 432.475 64.0469 432.475 59.7031C432.475 55.6719 433.428 52.3438 435.334 49.7188C437.272 47.0938 439.819 45.1406 442.975 43.8594C446.163 42.5781 449.6 41.9375 453.288 41.9375C466.913 41.9375 473.725 48.7344 473.725 62.3281V63.6406H456.381V60.9688C456.381 59.5625 456.131 58.2031 455.631 56.8906C455.163 55.5781 454.225 54.9219 452.819 54.9219C450.444 54.9219 449.256 56.1719 449.256 58.6719C449.256 61.2031 450.256 63.1875 452.256 64.625L462.663 72.2188C465.913 74.5625 468.631 77.3438 470.819 80.5625C473.038 83.7812 474.147 88.0625 474.147 93.4062C474.147 100.031 472.256 105.078 468.475 108.547C464.725 112.016 459.569 113.75 453.006 113.75Z" fill="#F5F5F5"/>
<path d="M126.947 243.75C120.978 243.75 116.166 241.891 112.509 238.172C108.884 234.453 107.072 229.25 107.072 222.562V184.5C107.072 176.5 108.65 170.375 111.806 166.125C114.994 161.875 120.166 159.75 127.322 159.75C131.228 159.75 134.697 160.469 137.728 161.906C140.791 163.344 143.197 165.5 144.947 168.375C146.697 171.219 147.572 174.812 147.572 179.156V193.406H131.166V181.219C131.166 178.75 130.853 177.094 130.228 176.25C129.603 175.375 128.634 174.938 127.322 174.938C125.791 174.938 124.759 175.5 124.228 176.625C123.697 177.719 123.431 179.188 123.431 181.031V222.328C123.431 224.609 123.759 226.219 124.416 227.156C125.103 228.094 126.072 228.562 127.322 228.562C128.728 228.562 129.712 227.984 130.275 226.828C130.869 225.672 131.166 224.172 131.166 222.328V207.469H147.759V223.078C147.759 230.328 145.931 235.594 142.275 238.875C138.619 242.125 133.509 243.75 126.947 243.75ZM183.047 243.75C169.047 243.75 162.047 236.484 162.047 221.953V193.734C162.047 187.109 163.906 181.828 167.625 177.891C171.344 173.922 176.484 171.938 183.047 171.938C189.641 171.938 194.797 173.922 198.516 177.891C202.234 181.828 204.094 187.109 204.094 193.734V221.953C204.094 236.484 197.078 243.75 183.047 243.75ZM183.047 230.812C184.453 230.812 185.453 230.312 186.047 229.312C186.672 228.281 186.984 226.984 186.984 225.422V191.062C186.984 186.969 185.672 184.922 183.047 184.922C180.422 184.922 179.109 186.969 179.109 191.062V225.422C179.109 226.984 179.406 228.281 180 229.312C180.625 230.312 181.641 230.812 183.047 230.812ZM219.928 243V172.688H236.334V180.844C237.084 177.969 238.366 175.766 240.178 174.234C241.991 172.703 244.647 171.938 248.147 171.938C250.959 171.938 253.35 172.594 255.319 173.906C257.319 175.188 258.725 176.891 259.537 179.016C260.819 176.703 262.319 174.953 264.037 173.766C265.787 172.547 268.272 171.938 271.491 171.938C275.397 171.938 278.397 172.781 280.491 174.469C282.616 176.125 284.084 178.438 284.897 181.406C285.741 184.344 286.162 187.75 286.162 191.625V243H269.428V191.344C269.428 186.812 268.272 184.547 265.959 184.547C264.741 184.547 263.803 184.969 263.147 185.812C262.491 186.625 262.037 187.641 261.787 188.859C261.537 190.078 261.412 191.297 261.412 192.516V243H244.678V191.344C244.678 189.875 244.491 188.406 244.116 186.938C243.772 185.469 242.866 184.734 241.397 184.734C240.147 184.734 239.178 185.188 238.491 186.094C237.803 187 237.334 188.125 237.084 189.469C236.834 190.781 236.709 192.078 236.709 193.359V243H219.928ZM302.372 243V172.688H318.778V180.844C319.528 177.969 320.809 175.766 322.622 174.234C324.434 172.703 327.091 171.938 330.591 171.938C333.403 171.938 335.794 172.594 337.762 173.906C339.762 175.188 341.169 176.891 341.981 179.016C343.262 176.703 344.762 174.953 346.481 173.766C348.231 172.547 350.716 171.938 353.934 171.938C357.841 171.938 360.841 172.781 362.934 174.469C365.059 176.125 366.528 178.438 367.341 181.406C368.184 184.344 368.606 187.75 368.606 191.625V243H351.872V191.344C351.872 186.812 350.716 184.547 348.403 184.547C347.184 184.547 346.247 184.969 345.591 185.812C344.934 186.625 344.481 187.641 344.231 188.859C343.981 190.078 343.856 191.297 343.856 192.516V243H327.122V191.344C327.122 189.875 326.934 188.406 326.559 186.938C326.216 185.469 325.309 184.734 323.841 184.734C322.591 184.734 321.622 185.188 320.934 186.094C320.247 187 319.778 188.125 319.528 189.469C319.278 190.781 319.153 192.078 319.153 193.359V243H302.372ZM404.503 243.75C399.503 243.75 395.519 242.812 392.55 240.938C389.581 239.062 387.456 236.359 386.175 232.828C384.894 229.297 384.253 225.047 384.253 220.078V191.812C384.253 185.281 386.128 180.344 389.878 177C393.628 173.625 398.784 171.938 405.347 171.938C418.847 171.938 425.597 178.562 425.597 191.812V196.922C425.597 203.109 425.534 207.266 425.409 209.391H401.034V222.984C401.034 224.234 401.112 225.469 401.269 226.688C401.425 227.875 401.769 228.859 402.3 229.641C402.862 230.422 403.753 230.812 404.972 230.812C406.722 230.812 407.816 230.062 408.253 228.562C408.691 227.031 408.909 225.047 408.909 222.609V215.859H425.597V219.844C425.597 225.094 424.941 229.5 423.628 233.062C422.347 236.594 420.159 239.266 417.066 241.078C414.003 242.859 409.816 243.75 404.503 243.75ZM400.941 201.047H408.909V191.578C408.909 189.047 408.597 187.234 407.972 186.141C407.347 185.016 406.409 184.453 405.159 184.453C403.816 184.453 402.769 184.984 402.019 186.047C401.3 187.109 400.941 188.953 400.941 191.578V201.047ZM441.291 243V172.688H458.072V181.641C458.697 178.953 459.853 176.672 461.541 174.797C463.259 172.891 465.634 171.938 468.666 171.938C473.541 171.938 477.072 173.438 479.259 176.438C481.478 179.438 482.587 183.547 482.587 188.766V243H466.041V190.5C466.041 189.125 465.759 187.859 465.197 186.703C464.634 185.516 463.666 184.922 462.291 184.922C461.009 184.922 460.056 185.375 459.431 186.281C458.837 187.156 458.462 188.266 458.306 189.609C458.15 190.922 458.072 192.234 458.072 193.547V243H441.291ZM513.234 243.75C508.703 243.75 505.641 242.797 504.047 240.891C502.484 238.953 501.703 236 501.703 232.031V188.203H496.969V175.406H501.703V160.5H518.016V175.406H522.75V188.203H518.016V228.094C518.016 229.25 518.203 230.062 518.578 230.531C518.953 231 519.672 231.234 520.734 231.234C521.484 231.234 522.156 231.172 522.75 231.047V242.484C522.375 242.609 521.203 242.844 519.234 243.188C517.266 243.562 515.266 243.75 513.234 243.75ZM557.006 243.75C543.131 243.75 536.194 236.719 536.194 222.656V217.078H553.069V225.328C553.069 226.922 553.381 228.172 554.006 229.078C554.631 229.984 555.631 230.438 557.006 230.438C559.444 230.438 560.663 228.609 560.663 224.953C560.663 221.891 560.022 219.609 558.741 218.109C557.459 216.578 555.897 215.109 554.053 213.703L545.1 206.812C542.288 204.625 540.147 202.312 538.678 199.875C537.209 197.438 536.475 194.047 536.475 189.703C536.475 185.672 537.428 182.344 539.334 179.719C541.272 177.094 543.819 175.141 546.975 173.859C550.163 172.578 553.6 171.938 557.288 171.938C570.913 171.938 577.725 178.734 577.725 192.328V193.641H560.381V190.969C560.381 189.562 560.131 188.203 559.631 186.891C559.163 185.578 558.225 184.922 556.819 184.922C554.444 184.922 553.256 186.172 553.256 188.672C553.256 191.203 554.256 193.188 556.256 194.625L566.663 202.219C569.913 204.562 572.631 207.344 574.819 210.562C577.038 213.781 578.147 218.062 578.147 223.406C578.147 230.031 576.256 235.078 572.475 238.547C568.725 242.016 563.569 243.75 557.006 243.75Z" fill="#F5F5F5"/>
<path d="M22.9473 387.75C16.9785 387.75 12.166 385.891 8.50977 382.172C4.88477 378.453 3.07227 373.25 3.07227 366.562V328.5C3.07227 320.5 4.65039 314.375 7.80664 310.125C10.9941 305.875 16.166 303.75 23.3223 303.75C27.2285 303.75 30.6973 304.469 33.7285 305.906C36.791 307.344 39.1973 309.5 40.9473 312.375C42.6973 315.219 43.5723 318.812 43.5723 323.156V337.406H27.166V325.219C27.166 322.75 26.8535 321.094 26.2285 320.25C25.6035 319.375 24.6348 318.938 23.3223 318.938C21.791 318.938 20.7598 319.5 20.2285 320.625C19.6973 321.719 19.4316 323.188 19.4316 325.031V366.328C19.4316 368.609 19.7598 370.219 20.416 371.156C21.1035 372.094 22.0723 372.562 23.3223 372.562C24.7285 372.562 25.7129 371.984 26.2754 370.828C26.8691 369.672 27.166 368.172 27.166 366.328V351.469H43.7598V367.078C43.7598 374.328 41.9316 379.594 38.2754 382.875C34.6191 386.125 29.5098 387.75 22.9473 387.75ZM79.0473 387.75C65.0473 387.75 58.0473 380.484 58.0473 365.953V337.734C58.0473 331.109 59.9066 325.828 63.6254 321.891C67.3441 317.922 72.4848 315.938 79.0473 315.938C85.641 315.938 90.7973 317.922 94.516 321.891C98.2348 325.828 100.094 331.109 100.094 337.734V365.953C100.094 380.484 93.0785 387.75 79.0473 387.75ZM79.0473 374.812C80.4535 374.812 81.4535 374.312 82.0473 373.312C82.6723 372.281 82.9848 370.984 82.9848 369.422V335.062C82.9848 330.969 81.6723 328.922 79.0473 328.922C76.4223 328.922 75.1098 330.969 75.1098 335.062V369.422C75.1098 370.984 75.4066 372.281 76.0004 373.312C76.6254 374.312 77.641 374.812 79.0473 374.812ZM115.928 387V316.688H132.334V324.844C133.084 321.969 134.366 319.766 136.178 318.234C137.991 316.703 140.647 315.938 144.147 315.938C146.959 315.938 149.35 316.594 151.319 317.906C153.319 319.188 154.725 320.891 155.537 323.016C156.819 320.703 158.319 318.953 160.037 317.766C161.787 316.547 164.272 315.938 167.491 315.938C171.397 315.938 174.397 316.781 176.491 318.469C178.616 320.125 180.084 322.438 180.897 325.406C181.741 328.344 182.162 331.75 182.162 335.625V387H165.428V335.344C165.428 330.812 164.272 328.547 161.959 328.547C160.741 328.547 159.803 328.969 159.147 329.812C158.491 330.625 158.037 331.641 157.787 332.859C157.537 334.078 157.412 335.297 157.412 336.516V387H140.678V335.344C140.678 333.875 140.491 332.406 140.116 330.938C139.772 329.469 138.866 328.734 137.397 328.734C136.147 328.734 135.178 329.188 134.491 330.094C133.803 331 133.334 332.125 133.084 333.469C132.834 334.781 132.709 336.078 132.709 337.359V387H115.928ZM198.372 387V316.688H214.778V324.844C215.528 321.969 216.809 319.766 218.622 318.234C220.434 316.703 223.091 315.938 226.591 315.938C229.403 315.938 231.794 316.594 233.762 317.906C235.762 319.188 237.169 320.891 237.981 323.016C239.262 320.703 240.762 318.953 242.481 317.766C244.231 316.547 246.716 315.938 249.934 315.938C253.841 315.938 256.841 316.781 258.934 318.469C261.059 320.125 262.528 322.438 263.341 325.406C264.184 328.344 264.606 331.75 264.606 335.625V387H247.872V335.344C247.872 330.812 246.716 328.547 244.403 328.547C243.184 328.547 242.247 328.969 241.591 329.812C240.934 330.625 240.481 331.641 240.231 332.859C239.981 334.078 239.856 335.297 239.856 336.516V387H223.122V335.344C223.122 333.875 222.934 332.406 222.559 330.938C222.216 329.469 221.309 328.734 219.841 328.734C218.591 328.734 217.622 329.188 216.934 330.094C216.247 331 215.778 332.125 215.528 333.469C215.278 334.781 215.153 336.078 215.153 337.359V387H198.372ZM300.503 387.75C295.503 387.75 291.519 386.812 288.55 384.938C285.581 383.062 283.456 380.359 282.175 376.828C280.894 373.297 280.253 369.047 280.253 364.078V335.812C280.253 329.281 282.128 324.344 285.878 321C289.628 317.625 294.784 315.938 301.347 315.938C314.847 315.938 321.597 322.562 321.597 335.812V340.922C321.597 347.109 321.534 351.266 321.409 353.391H297.034V366.984C297.034 368.234 297.112 369.469 297.269 370.688C297.425 371.875 297.769 372.859 298.3 373.641C298.862 374.422 299.753 374.812 300.972 374.812C302.722 374.812 303.816 374.062 304.253 372.562C304.691 371.031 304.909 369.047 304.909 366.609V359.859H321.597V363.844C321.597 369.094 320.941 373.5 319.628 377.062C318.347 380.594 316.159 383.266 313.066 385.078C310.003 386.859 305.816 387.75 300.503 387.75ZM296.941 345.047H304.909V335.578C304.909 333.047 304.597 331.234 303.972 330.141C303.347 329.016 302.409 328.453 301.159 328.453C299.816 328.453 298.769 328.984 298.019 330.047C297.3 331.109 296.941 332.953 296.941 335.578V345.047ZM337.291 387V316.688H354.072V325.641C354.697 322.953 355.853 320.672 357.541 318.797C359.259 316.891 361.634 315.938 364.666 315.938C369.541 315.938 373.072 317.438 375.259 320.438C377.478 323.438 378.587 327.547 378.587 332.766V387H362.041V334.5C362.041 333.125 361.759 331.859 361.197 330.703C360.634 329.516 359.666 328.922 358.291 328.922C357.009 328.922 356.056 329.375 355.431 330.281C354.837 331.156 354.462 332.266 354.306 333.609C354.15 334.922 354.072 336.234 354.072 337.547V387H337.291ZM409.234 387.75C404.703 387.75 401.641 386.797 400.047 384.891C398.484 382.953 397.703 380 397.703 376.031V332.203H392.969V319.406H397.703V304.5H414.016V319.406H418.75V332.203H414.016V372.094C414.016 373.25 414.203 374.062 414.578 374.531C414.953 375 415.672 375.234 416.734 375.234C417.484 375.234 418.156 375.172 418.75 375.047V386.484C418.375 386.609 417.203 386.844 415.234 387.188C413.266 387.562 411.266 387.75 409.234 387.75ZM453.006 387.75C439.131 387.75 432.194 380.719 432.194 366.656V361.078H449.069V369.328C449.069 370.922 449.381 372.172 450.006 373.078C450.631 373.984 451.631 374.438 453.006 374.438C455.444 374.438 456.663 372.609 456.663 368.953C456.663 365.891 456.022 363.609 454.741 362.109C453.459 360.578 451.897 359.109 450.053 357.703L441.1 350.812C438.288 348.625 436.147 346.312 434.678 343.875C433.209 341.438 432.475 338.047 432.475 333.703C432.475 329.672 433.428 326.344 435.334 323.719C437.272 321.094 439.819 319.141 442.975 317.859C446.163 316.578 449.6 315.938 453.288 315.938C466.913 315.938 473.725 322.734 473.725 336.328V337.641H456.381V334.969C456.381 333.562 456.131 332.203 455.631 330.891C455.163 329.578 454.225 328.922 452.819 328.922C450.444 328.922 449.256 330.172 449.256 332.672C449.256 335.203 450.256 337.188 452.256 338.625L462.663 346.219C465.913 348.562 468.631 351.344 470.819 354.562C473.038 357.781 474.147 362.062 474.147 367.406C474.147 374.031 472.256 379.078 468.475 382.547C464.725 386.016 459.569 387.75 453.006 387.75Z" fill="#F5F5F5"/>
</svg>
