<svg width="240" height="48" viewBox="0 0 240 48" fill="none" xmlns="http://www.w3.org/2000/svg">
<g clip-path="url(#clip0_535_784)">
<path d="M222.163 37.846L223.781 29.587H222.229V25.8226H224.517L224.976 23.4699H223.177V19.7055H225.711L227.231 11.998H231.876L230.355 19.7055H233.07L234.591 11.998H239.234L237.713 19.7055H239.234V23.4699H236.977L236.52 25.8226H238.285V29.587H235.767L234.149 37.846H229.521L231.14 29.587H228.409L226.79 37.846H222.163ZM229.162 25.8226H231.876L232.334 23.4699H229.619L229.162 25.8226Z" fill="#A79C96"/>
<path d="M57.4414 37.8463V9.28858H68.953V14.8541H63.23V19.3974H68.6587V24.898H63.23V37.8463H57.4414ZM81.1972 38.1058C76.3135 38.1058 73.8716 35.5908 73.8716 30.5608V20.7928C73.8716 18.4995 74.5203 16.6713 75.8175 15.3084C77.1148 13.9346 78.908 13.2477 81.1972 13.2477C83.4974 13.2477 85.2961 13.9346 86.5933 15.3084C87.8905 16.6713 88.5392 18.4995 88.5392 20.7928V30.5608C88.5392 35.5908 86.0918 38.1058 81.1972 38.1058ZM81.1972 33.6275C81.6878 33.6275 82.0367 33.4545 82.2437 33.1083C82.4618 32.7514 82.5708 32.3024 82.5708 31.7615V19.8679C82.5708 18.4509 82.1129 17.7423 81.1972 17.7423C80.2815 17.7423 79.8237 18.4509 79.8237 19.8679V31.7615C79.8237 32.3024 79.9273 32.7514 80.1343 33.1083C80.3524 33.4545 80.7067 33.6275 81.1972 33.6275ZM101.192 38.1058C96.3082 38.1058 93.8663 35.5908 93.8663 30.5608V20.7928C93.8663 18.4995 94.5156 16.6713 95.8124 15.3084C97.1101 13.9346 98.9026 13.2477 101.192 13.2477C103.492 13.2477 105.291 13.9346 106.588 15.3084C107.886 16.6713 108.534 18.4995 108.534 20.7928V30.5608C108.534 35.5908 106.087 38.1058 101.192 38.1058ZM101.192 33.6275C101.683 33.6275 102.032 33.4545 102.238 33.1083C102.457 32.7514 102.566 32.3024 102.566 31.7615V19.8679C102.566 18.4509 102.108 17.7423 101.192 17.7423C100.277 17.7423 99.8189 18.4509 99.8189 19.8679V31.7615C99.8189 32.3024 99.9222 32.7514 100.13 33.1083C100.347 33.4545 100.702 33.6275 101.192 33.6275ZM118.881 38.1058C117.748 38.1058 116.849 37.9004 116.184 37.4893C115.518 37.0783 115.023 36.5103 114.695 35.7856C114.369 35.0608 114.15 34.2117 114.041 33.2381C113.944 32.2645 113.894 31.2207 113.894 30.1065V19.5272C113.894 17.6558 114.226 16.1413 114.891 14.9839C115.568 13.8264 116.706 13.2477 118.309 13.2477C119.497 13.2477 120.408 13.502 121.04 14.0103C121.683 14.5079 122.179 15.2057 122.528 16.1035V9.28858H128.48V37.8463H122.528V35.2664C122.201 36.1426 121.765 36.8349 121.22 37.3433C120.686 37.8517 119.906 38.1058 118.881 38.1058ZM121.121 33.5626C121.678 33.5626 122.049 33.3408 122.234 32.8974C122.43 32.4538 122.528 31.6588 122.528 30.5121V20.2736C122.528 19.7002 122.44 19.1377 122.266 18.5861C122.103 18.0236 121.732 17.7423 121.155 17.7423C120.522 17.7423 120.124 18.0073 119.96 18.5373C119.798 19.0674 119.716 19.6461 119.716 20.2736V30.5121C119.716 32.5458 120.184 33.5626 121.121 33.5626ZM134.052 12.0145V7.1792H139.906V12.0145H134.052ZM134.052 37.8463V13.5073H139.906V37.8463H134.052ZM152.445 38.1058C150.701 38.1058 149.311 37.7814 148.276 37.1324C147.239 36.4833 146.499 35.5476 146.051 34.3252C145.605 33.1029 145.381 31.6318 145.381 29.9118V20.1275C145.381 17.8667 146.036 16.1576 147.344 15.0001C148.651 13.8319 150.451 13.2477 152.74 13.2477C157.449 13.2477 159.803 15.5409 159.803 20.1275V21.8961C159.803 24.038 159.782 25.4767 159.738 26.2123H151.235V30.9178C151.235 31.3505 151.263 31.7778 151.317 32.1996C151.371 32.6107 151.491 32.9515 151.677 33.2218C151.873 33.4923 152.184 33.6275 152.609 33.6275C153.219 33.6275 153.6 33.3679 153.753 32.8486C153.905 32.3186 153.982 31.6318 153.982 30.788V28.4515H159.803V29.8306C159.803 31.648 159.574 33.1732 159.117 34.4063C158.67 35.6288 157.906 36.5536 156.827 37.181C155.759 37.7976 154.298 38.1058 152.445 38.1058ZM151.202 23.3241H153.982V20.0464C153.982 19.1702 153.873 18.5428 153.655 18.1641C153.438 17.7748 153.11 17.58 152.674 17.58C152.205 17.58 151.84 17.7639 151.578 18.1317C151.328 18.4995 151.202 19.1377 151.202 20.0464V23.3241ZM167.845 37.8463V14.7729H164.427V9.28858H177.019V14.7729H173.601V37.8463H167.845ZM180.759 37.8463L183.54 9.28858H193.302L196.032 37.8463H190.587L190.178 33.2381H186.712L186.352 37.8463H180.759ZM187.12 28.6786H189.737L188.478 14.1563H188.216L187.12 28.6786ZM207.083 38.1058C202.973 38.1058 200.918 35.1852 200.918 29.3439V17.0284C200.918 11.6954 203.273 9.02896 207.982 9.02896C209.922 9.02896 211.411 9.41836 212.446 10.1973C213.482 10.9653 214.196 12.0903 214.588 13.5722C214.981 15.0542 215.177 16.8607 215.177 18.9917H209.552V16.4604C209.552 15.8439 209.465 15.33 209.291 14.919C209.127 14.4971 208.778 14.2862 208.244 14.2862C207.579 14.2862 207.137 14.5079 206.919 14.9515C206.712 15.3949 206.609 15.8817 206.609 16.4118V30.2525C206.609 31.0206 206.706 31.648 206.903 32.1347C207.11 32.6107 207.508 32.8486 208.097 32.8486C208.707 32.8486 209.11 32.6107 209.306 32.1347C209.514 31.648 209.617 31.0098 209.617 30.2201V26.1474H208.08V21.2146H215.112V37.8463H212.806L211.825 35.4448C210.822 37.2189 209.241 38.1058 207.083 38.1058ZM220.095 37.8463L221.715 29.5872H220.161V25.8228H222.451L222.908 23.4701H221.109V19.7057H223.644L225.165 11.9983H229.809L228.288 19.7057H231.002L232.523 11.9983H237.167L235.646 19.7057H237.167V23.4701H234.91L234.452 25.8228H236.218V29.5872H233.7L232.081 37.8463H227.453L229.073 29.5872H226.342L224.723 37.8463H220.095ZM227.094 25.8228H229.809L230.266 23.4701H227.552L227.094 25.8228Z" fill="white"/>
<mask id="mask0_535_784" style="mask-type:luminance" maskUnits="userSpaceOnUse" x="0" y="1" width="45" height="46">
<path d="M44.6516 1.84619H0.000488281V46.1539H44.6516V1.84619Z" fill="white"/>
</mask>
<g mask="url(#mask0_535_784)">
<path d="M22.326 46.0425C34.5942 46.0425 44.5396 36.1736 44.5396 23.9998C44.5396 11.8259 34.5942 1.95703 22.326 1.95703C10.0577 1.95703 0.112305 11.8259 0.112305 23.9998C0.112305 36.1736 10.0577 46.0425 22.326 46.0425Z" fill="#A79C96"/>
<mask id="mask1_535_784" style="mask-type:luminance" maskUnits="userSpaceOnUse" x="6" y="8" width="32" height="32">
<path d="M37.9541 8.49219H6.69824V39.5076H37.9541V8.49219Z" fill="white"/>
</mask>
<g mask="url(#mask1_535_784)">
<path d="M22.408 8.5835C18.2223 8.5835 14.2728 10.1042 11.3034 13.0512C8.33225 15.999 6.69824 19.8175 6.69824 23.9702C6.69893 28.0963 8.31154 31.9753 11.2343 34.9154C14.1961 37.815 18.1063 39.4159 22.2644 39.4159C26.4487 39.4159 30.3892 37.7952 33.361 34.8466C36.3311 31.9004 37.9541 27.9812 37.9541 23.8274V8.5835H22.408ZM29.9103 18.8802C28.412 18.8802 27.1985 17.6757 27.1985 16.1892C27.1985 14.7027 28.4124 13.4982 29.9103 13.4982C31.408 13.4982 32.6222 14.7027 32.6222 16.1892C32.6225 17.6757 31.408 18.8802 29.9103 18.8802Z" fill="white"/>
</g>
</g>
</g>
<defs>
<clipPath id="clip0_535_784">
<rect width="240" height="48" fill="white" transform="translate(0.000488281)"/>
</clipPath>
</defs>
</svg>
