<svg width="159" height="32" viewBox="0 0 159 32" fill="none" xmlns="http://www.w3.org/2000/svg">
<g clip-path="url(#clip0_206_2142)">
<path d="M146.969 25.2305L148.04 19.7245H147.013V17.2149H148.527L148.83 15.6464H147.64V13.1368H149.317L150.322 7.99854H153.395L152.389 13.1368H154.185L155.191 7.99854H158.263L157.257 13.1368H158.263V15.6464H156.77L156.467 17.2149H157.635V19.7245H155.969L154.898 25.2305H151.837L152.908 19.7245H151.102L150.031 25.2305H146.969ZM151.599 17.2149H153.395L153.698 15.6464H151.902L151.599 17.2149Z" fill="#B5A39A"/>
<path d="M38 25.2308V6.19239H45.6154V9.90272H41.8294V12.9316H45.4207V16.5987H41.8294V25.2308H38ZM53.7154 25.4039C50.4846 25.4039 48.8692 23.7272 48.8692 20.3739V13.8619C48.8692 12.333 49.2983 11.1142 50.1565 10.2056C51.0147 9.28974 52.201 8.83183 53.7154 8.83183C55.237 8.83183 56.427 9.28974 57.2851 10.2056C58.1433 11.1142 58.5724 12.333 58.5724 13.8619V20.3739C58.5724 23.7272 56.9534 25.4039 53.7154 25.4039ZM53.7154 22.4184C54.0399 22.4184 54.2707 22.303 54.4077 22.0722C54.5519 21.8342 54.6241 21.5349 54.6241 21.1744V13.2452C54.6241 12.3006 54.3212 11.8282 53.7154 11.8282C53.1096 11.8282 52.8068 12.3006 52.8068 13.2452V21.1744C52.8068 21.5349 52.8753 21.8342 53.0122 22.0722C53.1565 22.303 53.3909 22.4184 53.7154 22.4184ZM66.9426 25.4039C63.7119 25.4039 62.0965 23.7272 62.0965 20.3739V13.8619C62.0965 12.333 62.526 11.1142 63.3839 10.2056C64.2423 9.28974 65.4282 8.83183 66.9426 8.83183C68.4645 8.83183 69.6546 9.28974 70.5125 10.2056C71.371 11.1142 71.7999 12.333 71.7999 13.8619V20.3739C71.7999 23.7272 70.1808 25.4039 66.9426 25.4039ZM66.9426 22.4184C67.2676 22.4184 67.4983 22.303 67.635 22.0722C67.7796 21.8342 67.8516 21.5349 67.8516 21.1744V13.2452C67.8516 12.3006 67.5488 11.8282 66.9426 11.8282C66.3371 11.8282 66.0343 12.3006 66.0343 13.2452V21.1744C66.0343 21.5349 66.1026 21.8342 66.2399 22.0722C66.3839 22.303 66.6183 22.4184 66.9426 22.4184ZM78.6448 25.4039C77.8953 25.4039 77.3002 25.2669 76.8602 24.9929C76.4202 24.7188 76.0922 24.3402 75.8756 23.8571C75.6596 23.3739 75.515 22.8078 75.443 22.1587C75.3783 21.5097 75.3457 20.8138 75.3457 20.071V13.0181C75.3457 11.7705 75.5654 10.7609 76.0054 9.98925C76.4528 9.21762 77.206 8.83183 78.2663 8.83183C79.0522 8.83183 79.6546 9.00131 80.0731 9.3402C80.4983 9.67195 80.8263 10.1371 81.0571 10.7356V6.19239H84.995V25.2308H81.0571V23.5109C80.8411 24.095 80.5525 24.5566 80.1919 24.8955C79.8386 25.2345 79.323 25.4039 78.6448 25.4039ZM80.1266 22.3751C80.4946 22.3751 80.7402 22.2272 80.8626 21.9316C80.9925 21.6359 81.0571 21.1059 81.0571 20.3414V13.5157C81.0571 13.1335 80.9993 12.7585 80.8842 12.3907C80.7759 12.0157 80.531 11.8282 80.1488 11.8282C79.7303 11.8282 79.467 12.0049 79.3587 12.3582C79.251 12.7116 79.1968 13.0974 79.1968 13.5157V20.3414C79.1968 21.6972 79.507 22.3751 80.1266 22.3751ZM88.6811 8.00968V4.78613H92.5537V8.00968H88.6811ZM88.6811 25.2308V9.00488H92.5537V25.2308H88.6811ZM100.848 25.4039C99.6947 25.4039 98.7753 25.1876 98.0903 24.7549C97.4048 24.3222 96.915 23.6984 96.619 22.8835C96.3236 22.0686 96.1753 21.0878 96.1753 19.9412V13.4184C96.1753 11.9112 96.6085 10.7717 97.4737 10.0001C98.339 9.22125 99.5291 8.83183 101.044 8.83183C104.159 8.83183 105.716 10.3606 105.716 13.4184V14.5974C105.716 16.0253 105.702 16.9844 105.673 17.4748H100.048V20.6118C100.048 20.9003 100.066 21.1852 100.102 21.4664C100.138 21.7404 100.218 21.9676 100.34 22.1479C100.47 22.3282 100.676 22.4184 100.957 22.4184C101.36 22.4184 101.613 22.2452 101.714 21.8991C101.815 21.5457 101.865 21.0878 101.865 20.5253V18.9676H105.716V19.8871C105.716 21.0987 105.565 22.1155 105.262 22.9376C104.967 23.7525 104.461 24.3691 103.748 24.7873C103.041 25.1984 102.074 25.4039 100.848 25.4039ZM100.026 15.5494H101.865V13.3643C101.865 12.7801 101.793 12.3619 101.649 12.1094C101.505 11.8499 101.288 11.72 101 11.72C100.69 11.72 100.448 11.8426 100.275 12.0878C100.109 12.333 100.026 12.7585 100.026 13.3643V15.5494ZM111.036 25.2308V9.84863H108.775V6.19239H117.105V9.84863H114.844V25.2308H111.036ZM119.58 25.2308L121.419 6.19239H127.877L129.683 25.2308H126.081L125.81 22.1587H123.517L123.279 25.2308H119.58ZM123.788 19.1191H125.519L124.685 9.43755H124.512L123.788 19.1191ZM136.994 25.4039C134.275 25.4039 132.916 23.4568 132.916 19.5626V11.3523C132.916 7.79694 134.473 6.01931 137.588 6.01931C138.872 6.01931 139.856 6.27891 140.541 6.79817C141.227 7.31017 141.699 8.0602 141.959 9.04814C142.218 10.0361 142.348 11.2404 142.348 12.6611H138.627V10.9736C138.627 10.5626 138.569 10.22 138.454 9.94598C138.346 9.66475 138.115 9.52414 137.762 9.52414C137.322 9.52414 137.029 9.67195 136.885 9.96765C136.748 10.2633 136.68 10.5878 136.68 10.9412V20.1683C136.68 20.6804 136.744 21.0987 136.874 21.4232C137.012 21.7404 137.275 21.8991 137.664 21.8991C138.068 21.8991 138.335 21.7404 138.464 21.4232C138.602 21.0987 138.67 20.6732 138.67 20.1467V17.4316H137.653V14.1431H142.305V25.2308H140.78L140.13 23.6299C139.467 24.8126 138.421 25.4039 136.994 25.4039ZM145.602 25.2308L146.673 19.7248H145.645V17.2152H147.16L147.463 15.6467H146.272V13.1371H147.949L148.956 7.99885H152.028L151.021 13.1371H152.817L153.823 7.99885H156.895L155.889 13.1371H156.895V15.6467H155.402L155.1 17.2152H156.268V19.7248H154.602L153.531 25.2308H150.469L151.541 19.7248H149.734L148.663 25.2308H145.602ZM150.232 17.2152H152.028L152.33 15.6467H150.535L150.232 17.2152Z" fill="white"/>
<mask id="mask0_206_2142" style="mask-type:luminance" maskUnits="userSpaceOnUse" x="0" y="1" width="30" height="30">
<path d="M29.5389 1.23096H0.000488281V30.7694H29.5389V1.23096Z" fill="white"/>
</mask>
<g mask="url(#mask0_206_2142)">
<path d="M14.7694 30.6955C22.8853 30.6955 29.4645 24.1163 29.4645 16.0003C29.4645 7.8844 22.8853 1.30518 14.7694 1.30518C6.65347 1.30518 0.0742188 7.8844 0.0742188 16.0003C0.0742188 24.1163 6.65347 30.6955 14.7694 30.6955Z" fill="#B5A39A"/>
<mask id="mask1_206_2142" style="mask-type:luminance" maskUnits="userSpaceOnUse" x="4" y="5" width="22" height="22">
<path d="M25.1081 5.66162H4.43115V26.3385H25.1081V5.66162Z" fill="white"/>
</mask>
<g mask="url(#mask1_206_2142)">
<path d="M14.8238 5.72266C12.0548 5.72266 9.44198 6.73646 7.47761 8.70107C5.51211 10.6664 4.43115 13.212 4.43115 15.9805C4.43161 18.7312 5.49841 21.3173 7.43195 23.2773C9.39127 25.2104 11.978 26.2776 14.7288 26.2776C17.4968 26.2776 20.1036 25.1971 22.0696 23.2314C24.0344 21.2672 25.1081 18.6545 25.1081 15.8853V5.72266H14.8238ZM19.7868 12.5871C18.7956 12.5871 17.9929 11.7841 17.9929 10.7931C17.9929 9.80212 18.7959 8.9991 19.7868 8.9991C20.7776 8.9991 21.5808 9.80212 21.5808 10.7931C21.5811 11.7841 20.7776 12.5871 19.7868 12.5871Z" fill="white"/>
</g>
</g>
</g>
<defs>
<clipPath id="clip0_206_2142">
<rect width="158.769" height="32" fill="white" transform="translate(0.000488281)"/>
</clipPath>
</defs>
</svg>
