<svg width="40" height="40" viewBox="0 0 40 40" fill="none" xmlns="http://www.w3.org/2000/svg">
<rect width="40" height="40" rx="20" fill="#DCD3CE"/>
<path d="M11.8001 26.8001C12.9334 25.9334 14.2001 25.2501 15.6001 24.7501C17.0001 24.2501 18.4667 24.0001 20.0001 24.0001C21.5334 24.0001 23.0001 24.2501 24.4001 24.7501C25.8001 25.2501 27.0667 25.9334 28.2001 26.8001C28.9779 25.889 29.5834 24.8556 30.0167 23.7001C30.4501 22.5445 30.6667 21.3112 30.6667 20.0001C30.6667 17.0445 29.6279 14.5279 27.5501 12.4501C25.4723 10.3723 22.9556 9.33341 20.0001 9.33341C17.0445 9.33341 14.5279 10.3723 12.4501 12.4501C10.3723 14.5279 9.33341 17.0445 9.33341 20.0001C9.33341 21.3112 9.55008 22.5445 9.98341 23.7001C10.4167 24.8556 11.0223 25.889 11.8001 26.8001ZM20.0001 21.3334C18.689 21.3334 17.5834 20.8834 16.6834 19.9834C15.7834 19.0834 15.3334 17.9779 15.3334 16.6667C15.3334 15.3556 15.7834 14.2501 16.6834 13.3501C17.5834 12.4501 18.689 12.0001 20.0001 12.0001C21.3112 12.0001 22.4167 12.4501 23.3167 13.3501C24.2167 14.2501 24.6667 15.3556 24.6667 16.6667C24.6667 17.9779 24.2167 19.0834 23.3167 19.9834C22.4167 20.8834 21.3112 21.3334 20.0001 21.3334ZM20.0001 33.3334C18.1556 33.3334 16.4223 32.9834 14.8001 32.2834C13.1779 31.5834 11.7667 30.6334 10.5667 29.4334C9.36675 28.2334 8.41675 26.8223 7.71675 25.2001C7.01675 23.5779 6.66675 21.8445 6.66675 20.0001C6.66675 18.1556 7.01675 16.4223 7.71675 14.8001C8.41675 13.1779 9.36675 11.7667 10.5667 10.5667C11.7667 9.36675 13.1779 8.41675 14.8001 7.71675C16.4223 7.01675 18.1556 6.66675 20.0001 6.66675C21.8445 6.66675 23.5779 7.01675 25.2001 7.71675C26.8223 8.41675 28.2334 9.36675 29.4334 10.5667C30.6334 11.7667 31.5834 13.1779 32.2834 14.8001C32.9834 16.4223 33.3334 18.1556 33.3334 20.0001C33.3334 21.8445 32.9834 23.5779 32.2834 25.2001C31.5834 26.8223 30.6334 28.2334 29.4334 29.4334C28.2334 30.6334 26.8223 31.5834 25.2001 32.2834C23.5779 32.9834 21.8445 33.3334 20.0001 33.3334ZM20.0001 30.6667C21.1779 30.6667 22.289 30.4945 23.3334 30.1501C24.3779 29.8056 25.3334 29.3112 26.2001 28.6667C25.3334 28.0223 24.3779 27.5279 23.3334 27.1834C22.289 26.839 21.1779 26.6667 20.0001 26.6667C18.8223 26.6667 17.7112 26.839 16.6667 27.1834C15.6223 27.5279 14.6667 28.0223 13.8001 28.6667C14.6667 29.3112 15.6223 29.8056 16.6667 30.1501C17.7112 30.4945 18.8223 30.6667 20.0001 30.6667ZM20.0001 18.6667C20.5779 18.6667 21.0556 18.4779 21.4334 18.1001C21.8112 17.7223 22.0001 17.2445 22.0001 16.6667C22.0001 16.089 21.8112 15.6112 21.4334 15.2334C21.0556 14.8556 20.5779 14.6667 20.0001 14.6667C19.4223 14.6667 18.9445 14.8556 18.5667 15.2334C18.189 15.6112 18.0001 16.089 18.0001 16.6667C18.0001 17.2445 18.189 17.7223 18.5667 18.1001C18.9445 18.4779 19.4223 18.6667 20.0001 18.6667Z" fill="#6B5A52"/>
</svg>
