<svg width="32" height="32" viewBox="0 0 32 32" fill="none" xmlns="http://www.w3.org/2000/svg">
<path d="M7.80008 22.8001C8.93341 21.9334 10.2001 21.2501 11.6001 20.7501C13.0001 20.2501 14.4667 20.0001 16.0001 20.0001C17.5334 20.0001 19.0001 20.2501 20.4001 20.7501C21.8001 21.2501 23.0667 21.9334 24.2001 22.8001C24.9779 21.889 25.5834 20.8556 26.0167 19.7001C26.4501 18.5445 26.6667 17.3112 26.6667 16.0001C26.6667 13.0445 25.6279 10.5279 23.5501 8.45008C21.4723 6.3723 18.9556 5.33341 16.0001 5.33341C13.0445 5.33341 10.5279 6.3723 8.45008 8.45008C6.3723 10.5279 5.33341 13.0445 5.33341 16.0001C5.33341 17.3112 5.55008 18.5445 5.98341 19.7001C6.41675 20.8556 7.0223 21.889 7.80008 22.8001ZM16.0001 17.3334C14.689 17.3334 13.5834 16.8834 12.6834 15.9834C11.7834 15.0834 11.3334 13.9779 11.3334 12.6667C11.3334 11.3556 11.7834 10.2501 12.6834 9.35008C13.5834 8.45008 14.689 8.00008 16.0001 8.00008C17.3112 8.00008 18.4167 8.45008 19.3167 9.35008C20.2167 10.2501 20.6667 11.3556 20.6667 12.6667C20.6667 13.9779 20.2167 15.0834 19.3167 15.9834C18.4167 16.8834 17.3112 17.3334 16.0001 17.3334ZM16.0001 29.3334C14.1556 29.3334 12.4223 28.9834 10.8001 28.2834C9.17786 27.5834 7.76675 26.6334 6.56675 25.4334C5.36675 24.2334 4.41675 22.8223 3.71675 21.2001C3.01675 19.5779 2.66675 17.8445 2.66675 16.0001C2.66675 14.1556 3.01675 12.4223 3.71675 10.8001C4.41675 9.17786 5.36675 7.76675 6.56675 6.56675C7.76675 5.36675 9.17786 4.41675 10.8001 3.71675C12.4223 3.01675 14.1556 2.66675 16.0001 2.66675C17.8445 2.66675 19.5779 3.01675 21.2001 3.71675C22.8223 4.41675 24.2334 5.36675 25.4334 6.56675C26.6334 7.76675 27.5834 9.17786 28.2834 10.8001C28.9834 12.4223 29.3334 14.1556 29.3334 16.0001C29.3334 17.8445 28.9834 19.5779 28.2834 21.2001C27.5834 22.8223 26.6334 24.2334 25.4334 25.4334C24.2334 26.6334 22.8223 27.5834 21.2001 28.2834C19.5779 28.9834 17.8445 29.3334 16.0001 29.3334ZM16.0001 26.6667C17.1779 26.6667 18.289 26.4945 19.3334 26.1501C20.3779 25.8056 21.3334 25.3112 22.2001 24.6667C21.3334 24.0223 20.3779 23.5279 19.3334 23.1834C18.289 22.839 17.1779 22.6667 16.0001 22.6667C14.8223 22.6667 13.7112 22.839 12.6667 23.1834C11.6223 23.5279 10.6667 24.0223 9.80008 24.6667C10.6667 25.3112 11.6223 25.8056 12.6667 26.1501C13.7112 26.4945 14.8223 26.6667 16.0001 26.6667ZM16.0001 14.6667C16.5779 14.6667 17.0556 14.4779 17.4334 14.1001C17.8112 13.7223 18.0001 13.2445 18.0001 12.6667C18.0001 12.089 17.8112 11.6112 17.4334 11.2334C17.0556 10.8556 16.5779 10.6667 16.0001 10.6667C15.4223 10.6667 14.9445 10.8556 14.5667 11.2334C14.189 11.6112 14.0001 12.089 14.0001 12.6667C14.0001 13.2445 14.189 13.7223 14.5667 14.1001C14.9445 14.4779 15.4223 14.6667 16.0001 14.6667Z" fill="#333333"/>
</svg>
